<svg width="26" height="26" viewBox="0 0 26 26" fill="none" xmlns="http://www.w3.org/2000/svg">
<path fill-rule="evenodd" clip-rule="evenodd" d="M25.5 13C25.5 6.09644 19.9036 0.5 13 0.5C6.09644 0.5 0.5 6.09644 0.5 13C0.5 19.9036 6.09644 25.5 13 25.5C19.9036 25.5 25.5 19.9036 25.5 13ZM13 5.8125C13.5178 5.8125 13.9375 6.23223 13.9375 6.75V14.25C13.9375 14.7678 13.5178 15.1875 13 15.1875C12.4822 15.1875 12.0625 14.7678 12.0625 14.25V6.75C12.0625 6.23223 12.4822 5.8125 13 5.8125ZM13 19.25C13.6904 19.25 14.25 18.6904 14.25 18C14.25 17.3096 13.6904 16.75 13 16.75C12.3096 16.75 11.75 17.3096 11.75 18C11.75 18.6904 12.3096 19.25 13 19.25Z" fill="#E2E6EE"/>
</svg>
