<svg xmlns="http://www.w3.org/2000/svg" width="21" height="21" viewBox="0 0 21 21" fill="none">
<path d="M10.4997 19.9173C15.5623 19.9173 19.6663 15.8133 19.6663 10.7507C19.6663 5.68804 15.5623 1.58398 10.4997 1.58398C5.43706 1.58398 1.33301 5.68804 1.33301 10.7507C1.33301 15.8133 5.43706 19.9173 10.4997 19.9173Z" fill="#FFD7D6"/>
<path d="M10.4997 7.41732V12.4173M10.4997 14.9173V14.9256M19.6663 10.7507C19.6663 15.8133 15.5623 19.9173 10.4997 19.9173C5.43706 19.9173 1.33301 15.8133 1.33301 10.7507C1.33301 5.68804 5.43706 1.58398 10.4997 1.58398C15.5623 1.58398 19.6663 5.68804 19.6663 10.7507Z" stroke="#FF3534" stroke-linecap="round"/>
</svg>