<svg width="24" height="24" viewBox="0 0 24 24" fill="none" xmlns="http://www.w3.org/2000/svg">
<path d="M6.00259 13.1809V10.0001C6.00259 6.67781 8.67772 4.00009 12 4.00009C12.7004 4.00009 13.3736 4.11402 14 4.32604M17.2556 7.00009C17.7507 7.87102 18.0336 8.89001 18.0336 10.0001V13.1594C18.0336 13.6425 18.1089 14.1225 18.2567 14.5809L18.9951 16.8724C19.0153 16.9352 18.9702 17 18.9062 17L7 17.0001M15 19.6458C14.2671 20.4762 13.1947 21 12 21C10.8053 21 9.73294 20.4762 9 19.6458M20 4L12 12L4 20" stroke="black" stroke-linecap="round"/>
</svg>
