<svg width="24" height="24" viewBox="0 0 24 24" fill="none" xmlns="http://www.w3.org/2000/svg">
<path d="M14.3708 8.56C14.3708 8.83614 14.5947 9.06 14.8708 9.06C15.1469 9.06 15.3708 8.83614 15.3708 8.56H14.3708ZM15.3708 15.68C15.3708 15.4039 15.1469 15.18 14.8708 15.18C14.5947 15.18 14.3708 15.4039 14.3708 15.68H15.3708ZM12.5053 18.028C12.2291 18.028 12.0053 18.2519 12.0053 18.528C12.0053 18.8041 12.2291 19.028 12.5053 19.028V18.028ZM14.0635 18.3642L14.2935 18.8081L14.2935 18.8081L14.0635 18.3642ZM14.7097 17.7073L14.2627 17.4833L14.2627 17.4833L14.7097 17.7073ZM6.80726 5.16383L7.03724 5.6078L7.03724 5.6078L6.80726 5.16383ZM5.5 7.40498C5.5 7.68112 5.72386 7.90498 6 7.90498C6.27614 7.90498 6.5 7.68112 6.5 7.40498H5.5ZM6.16114 5.82071L6.60815 6.04474H6.60815L6.16114 5.82071ZM14.7097 5.82071L14.2627 6.04474L14.7097 5.82071ZM14.0635 5.16383L14.2935 4.71986V4.71986L14.0635 5.16383ZM8.01907 5.76399L7.84212 6.23163L8.01907 5.76399ZM10.976 6.88284L11.153 6.4152L10.976 6.88284ZM9.8948 19.9L10.0717 19.4324L9.8948 19.9ZM6.93786 18.7812L6.76091 19.2488L6.76091 19.2488L6.93786 18.7812ZM18.567 12.62C18.8431 12.62 19.067 12.3961 19.067 12.12C19.067 11.8439 18.8431 11.62 18.567 11.62V12.62ZM11.9139 11.62C11.6377 11.62 11.4139 11.8439 11.4139 12.12C11.4139 12.3961 11.6377 12.62 11.9139 12.62V11.62ZM16.7416 13.8959C16.5428 14.0874 16.5368 14.404 16.7284 14.6029C16.9199 14.8018 17.2365 14.8077 17.4354 14.6161L16.7416 13.8959ZM18.4699 12.9255L18.8167 13.2857L18.4699 12.9255ZM18.4699 11.3145L18.8167 10.9543L18.8167 10.9543L18.4699 11.3145ZM17.4354 9.62388C17.2365 9.43231 16.9199 9.43825 16.7284 9.63714C16.5368 9.83603 16.5428 10.1526 16.7416 10.3441L17.4354 9.62388ZM18.9638 12.34L18.4901 12.1802V12.1802L18.9638 12.34ZM18.9638 11.9L18.4901 12.0598L18.9638 11.9ZM15.3708 8.56V7.40498H14.3708V8.56H15.3708ZM12.5053 4.5H8.36555V5.5H12.5053V4.5ZM15.3708 16.123V15.68H14.3708V16.123H15.3708ZM12.5053 19.028C12.9109 19.028 13.2457 19.0284 13.5177 19.0058C13.7958 18.9827 14.0524 18.933 14.2935 18.8081L13.8336 17.9202C13.7584 17.9591 13.6499 17.9914 13.4349 18.0092C13.2139 18.0276 12.9277 18.028 12.5053 18.028V19.028ZM14.3708 16.123C14.3708 16.5521 14.3704 16.8442 14.3523 17.0702C14.3346 17.2906 14.3024 17.404 14.2627 17.4833L15.1567 17.9313C15.2781 17.6891 15.3265 17.4312 15.3491 17.1503C15.3712 16.875 15.3708 16.5358 15.3708 16.123H14.3708ZM14.2935 18.8081C14.6664 18.615 14.9681 18.3075 15.1567 17.9313L14.2627 17.4833C14.1677 17.6727 14.017 17.8252 13.8336 17.9202L14.2935 18.8081ZM8.36555 4.5C7.95992 4.5 7.62514 4.4996 7.3531 4.52219C7.07498 4.5453 6.81836 4.59497 6.57727 4.71986L7.03724 5.6078C7.11241 5.56886 7.22093 5.53662 7.43588 5.51876C7.65692 5.5004 7.94315 5.5 8.36555 5.5V4.5ZM6.5 7.40498C6.5 6.97595 6.50038 6.68376 6.51854 6.45779C6.53625 6.23742 6.56842 6.12401 6.60815 6.04474L5.71414 5.59669C5.59272 5.83895 5.54433 6.09676 5.52175 6.37768C5.49962 6.65301 5.5 6.99218 5.5 7.40498H6.5ZM6.57727 4.71986C6.20435 4.91304 5.90269 5.22046 5.71414 5.59669L6.60815 6.04474C6.70309 5.85531 6.85378 5.70284 7.03724 5.6078L6.57727 4.71986ZM15.3708 7.40498C15.3708 6.99218 15.3712 6.65301 15.3491 6.37768C15.3265 6.09676 15.2781 5.83895 15.1567 5.59669L14.2627 6.04474C14.3024 6.12401 14.3346 6.23742 14.3523 6.45779C14.3704 6.68376 14.3708 6.97595 14.3708 7.40498H15.3708ZM12.5053 5.5C12.9276 5.5 13.2139 5.5004 13.4349 5.51876C13.6499 5.53662 13.7584 5.56886 13.8336 5.6078L14.2935 4.71986C14.0524 4.59497 13.7958 4.5453 13.5177 4.52219C13.2457 4.4996 12.9109 4.5 12.5053 4.5V5.5ZM15.1567 5.59669C14.9681 5.22046 14.6664 4.91304 14.2935 4.71986L13.8336 5.6078C14.017 5.70284 14.1677 5.85531 14.2627 6.04474L15.1567 5.59669ZM7.84212 6.23163L10.7991 7.35048L11.153 6.4152L8.19602 5.29634L7.84212 6.23163ZM11.4139 8.20823V18.5746H12.4139V8.20823H11.4139ZM10.0717 19.4324L7.11481 18.3135L6.76091 19.2488L9.71785 20.3677L10.0717 19.4324ZM6.5 17.4558V7.08938H5.5V17.4558H6.5ZM7.11481 18.3135C6.73483 18.1697 6.5 17.8243 6.5 17.4558H5.5C5.5 18.2582 6.00932 18.9644 6.76091 19.2488L7.11481 18.3135ZM11.4139 18.5746C11.4139 19.2011 10.7407 19.6855 10.0717 19.4324L9.71785 20.3677C10.9887 20.8485 12.4139 19.9555 12.4139 18.5746H11.4139ZM10.7991 7.35048C11.179 7.49426 11.4139 7.8397 11.4139 8.20823H12.4139C12.4139 7.4058 11.9045 6.69959 11.153 6.4152L10.7991 7.35048ZM8.19602 5.29634C6.92516 4.81547 5.5 5.70846 5.5 7.08938H6.5C6.5 6.46294 7.17317 5.97851 7.84212 6.23163L8.19602 5.29634ZM18.567 11.62H11.9139V12.62H18.567V11.62ZM17.4354 14.6161L18.8167 13.2857L18.123 12.5654L16.7416 13.8959L17.4354 14.6161ZM18.8167 10.9543L17.4354 9.62388L16.7416 10.3441L18.123 11.6746L18.8167 10.9543ZM18.8167 13.2857C18.9571 13.1504 19.0844 13.0284 19.1811 12.9186C19.2814 12.8049 19.3799 12.6709 19.4376 12.4998L18.4901 12.1802C18.4929 12.1718 18.4908 12.1895 18.431 12.2574C18.3676 12.3293 18.2754 12.4187 18.123 12.5654L18.8167 13.2857ZM18.123 11.6746C18.2754 11.8213 18.3676 11.9107 18.431 11.9826C18.4908 12.0505 18.4929 12.0682 18.4901 12.0598L19.4376 11.7402C19.3799 11.5691 19.2814 11.4351 19.1811 11.3214C19.0844 11.2116 18.9571 11.0896 18.8167 10.9543L18.123 11.6746ZM19.4376 12.4998C19.5208 12.2532 19.5208 11.9868 19.4376 11.7402L18.4901 12.0598C18.5033 12.0991 18.5033 12.1409 18.4901 12.1802L19.4376 12.4998Z" fill="black"/>
</svg>
