<svg xmlns="http://www.w3.org/2000/svg" width="18" height="18" viewBox="0 0 18 18" fill="none">
<path d="M9 13.3636V13.3709M6.09091 7.54545C6.09091 5.93881 7.39335 4.63636 9 4.63636C10.6066 4.63636 11.9091 5.93881 11.9091 7.54545C11.9091 8.90362 10.9784 10.0444 9.71991 10.3648C9.33067 10.4639 9 10.7802 9 11.1818M17 9C17 13.4183 13.4183 17 9 17C4.58172 17 1 13.4183 1 9C1 4.58172 4.58172 1 9 1C13.4183 1 17 4.58172 17 9Z" stroke="black" stroke-linecap="round"/>
<circle cx="9" cy="13" r="1" fill="black"/>
</svg>