<?xml version="1.0" encoding="utf-8"?>
<!-- Generator: Adobe Illustrator 28.0.0, SVG Export Plug-In . SVG Version: 6.00 Build 0)  -->
<svg version="1.1" id="_레이어_2" xmlns="http://www.w3.org/2000/svg" xmlns:xlink="http://www.w3.org/1999/xlink" x="0px"
	 y="0px" width="151.9px" height="76.4px" viewBox="0 0 151.9 76.4" style="enable-background:new 0 0 151.9 76.4;"
	 xml:space="preserve">
<g>
	<path d="M9.1,45.8H0v-11h8.2v1.8h-6V44h6.9V45.8L9.1,45.8z M11.1,33.4h2.2v17h-2.2V33.4z"/>
	<path d="M15.8,44.9l3.2-4.6c0.8-1.1,0.9-1.6,0.9-2.4v-1.1h-3.4V35h9v1.8H22v1.1c0,0.8,0.2,1.4,0.9,2.4l3.2,4.6L24.4,46l-3.2-4.6
		l-0.3-0.5l-0.3,0.5L17.4,46L15.8,44.9C15.8,44.9,15.8,44.9,15.8,44.9z M30.2,33.4v17H28v-17H30.2z"/>
	<path d="M41.8,42.1h-8.6v-8h8.1v1.8h-5.9v1.2H41v1.7h-5.7v1.4h6.4v1.9l0,0L41.8,42.1z M47,43.4v4.4h-9v1.3h9.4v1.7H35.9v-4.5h8.9
		v-1.2h-9v-1.7C35.8,43.4,47,43.4,47,43.4z M44.8,37.1v-3.7H47v9.3h-2.2v-3.9h-3v-1.7C41.8,37.1,44.8,37.1,44.8,37.1z"/>
	<path d="M53.9,41.8l3-3.4c0.6-0.7,0.8-1.3,0.8-1.9v-2.3h2.1v2.3c0,0.6,0,1.1,0.8,1.9l3,3.4l-1.5,1.3l-3-3.4l-0.3-0.4l-0.3,0.4
		l-3,3.4L53.9,41.8L53.9,41.8z M58.6,44.9v3.9h9.1v1.8H56.5v-5.7C56.5,44.9,58.6,44.9,58.6,44.9z M67.2,33.4v5.2h2.4v1.8h-2.4v5.2
		H65V33.4H67.2z"/>
	<path d="M84.9,33.4v9.4h-2.2v-3.7h-3.1c-0.4,2.1-2.1,3.5-4.4,3.5s-4.6-1.8-4.6-4.3s1.9-4.4,4.6-4.4s4.1,1.4,4.4,3.5h3.1v-3.9
		L84.9,33.4L84.9,33.4z M77.6,38.2c0-1.6-1-2.6-2.4-2.6s-2.4,1-2.4,2.6s1,2.6,2.4,2.6S77.6,39.7,77.6,38.2z M76,43.6v1.9h6.7v-1.9
		h2.2v7.1h-11v-7.1C73.9,43.6,76,43.6,76,43.6z M76,49h6.7v-1.8H76V49z"/>
	<path d="M87.3,38.6c0-2.6,1.9-4.4,4.6-4.4s4.5,1.8,4.5,4.4s-1.9,4.3-4.5,4.3S87.3,41.2,87.3,38.6z M94.3,38.6c0-1.6-1-2.6-2.4-2.6
		s-2.4,1-2.4,2.6s1,2.6,2.4,2.6S94.3,40.2,94.3,38.6z M92.2,44.8v4.1h9.1v1.7H90v-5.8C90,44.8,92.2,44.8,92.2,44.8z M98.6,33.4h2.2
		v5.1h2.4v1.8h-2.4v5.2h-2.2V33.4z"/>
	<path d="M104.3,41.8l3.1-3.1c0.6-0.6,0.7-1.2,0.7-1.8v-0.7h-3.4v-1.8h8.8v1.8h-3.3v0.7c0,0.6,0,1.1,0.7,1.8l3.1,3.1l-1.4,1.4
		l-3.1-3.1l-0.3-0.4l-0.4,0.4l-3.1,3.1L104.3,41.8L104.3,41.8L104.3,41.8z M109.4,44.8v4.1h9.1v1.7h-11.3v-5.8
		C107.2,44.8,109.4,44.8,109.4,44.8z M116.2,39.3h-2.9v-1.8h2.9v-4.1h2.2v12.1h-2.2V39.3z"/>
	<path d="M125.9,38.7V42h5.2v1.7h-10.4V42h3.1v-3.3H125.9z M130.2,40.7H128v-4.6h-6.5v-1.8h8.7V40.7
		C130.2,40.7,130.2,40.7,130.2,40.7z M125.8,45.4v3.5h9.4v1.7h-11.6v-5.2C123.6,45.4,125.8,45.4,125.8,45.4z M134.5,33.4v5.5h2.2
		v1.8h-2.2V46h-2.2V33.4H134.5z"/>
	<path d="M144.6,39.3v-2.7h-6v-1.7h8.1v6.3h-5.9v3.3h7.2v1.8h-9.3v-6.8L144.6,39.3C144.6,39.3,144.6,39.3,144.6,39.3z M149.7,33.4
		h2.2v17h-2.2V33.4z"/>
</g>
<g>
	<g>
		<path d="M36.5,71.2v1.2h-2V59.2h2v5.7c0.8-1.1,1.9-1.3,2.6-1.3c2.4,0,4.2,1.8,4.2,4.5s-1.8,4.5-4.2,4.5
			C38.4,72.5,37.3,72.3,36.5,71.2z M41.3,68.1c0-1.7-0.9-2.8-2.4-2.8s-2.4,1.2-2.4,2.8s1.1,2.8,2.4,2.8S41.3,69.8,41.3,68.1z"/>
		<path d="M45.5,76.3l1.9-4.6l-3.6-8.1H46l2.4,5.9l2.3-5.9H53l-3.3,7.9l-2,4.7L45.5,76.3L45.5,76.3z"/>
	</g>
	<g>
		<path style="fill:#16223B;" d="M56.8,70.3c0,0,0-0.2,0.2-0.3l1.5-0.4c0,0,0.2,0,0.3,0c0.4,0.7,1,0.9,1.7,0.9s1.3-0.2,1.3-0.6
			s-0.4-0.6-1.3-0.8H60c-1-0.4-1.7-0.8-2.2-1.3s-0.7-1.1-0.7-1.7c0-1.5,1.3-2.5,3.3-2.5s2.8,0.7,3.4,2.2c0,0,0,0.2,0,0.3l-1.5,0.5
			c0,0-0.2,0-0.3,0c-0.3-0.5-0.7-0.9-1.5-0.9s-1,0.2-1,0.6s0.4,0.6,1.3,0.8h0.5c2.1,0.6,2.8,1.5,2.8,3s-1.4,2.6-3.4,2.6
			S57.4,71.8,56.8,70.3L56.8,70.3L56.8,70.3z"/>
		<path style="fill:#16223B;" d="M65.6,68.1c0-2.6,1.7-4.5,4.1-4.5s2.2,0.5,2.8,1.3v-1c0-0.2,0.2-0.2,0.3-0.2h1.6c0,0,0.2,0,0.2,0.2
			v8.2c0,0,0,0.2-0.2,0.2h-1.6c0,0-0.2,0-0.2-0.2v-1c-0.7,0.8-1.7,1.3-2.9,1.3C67.3,72.6,65.6,70.7,65.6,68.1z M72.2,68.1
			c0-1.5-0.9-2.5-2.3-2.5s-2.3,1-2.3,2.5s0.9,2.5,2.3,2.5S72.2,69.6,72.2,68.1z"/>
		<path style="fill:#16223B;" d="M77.9,72.4c0,0-0.2,0-0.2-0.2v-6.5h-1.2c0,0-0.2,0-0.2-0.2V64c0,0,0-0.2,0.2-0.2h1.2v-0.5
			c0-2.1,1.2-3.4,3-3.4s2.3,0.6,2.9,1.8c0,0,0,0.2,0,0.3l-1.3,0.6c0,0-0.2,0-0.3,0c-0.3-0.5-0.5-0.6-1-0.6s-1,0.5-1,1.4V64h1.2
			c0,0,0.2,0,0.2,0.2v1.5c0,0,0,0.2-0.2,0.2H80v6.5c0,0,0,0.2-0.2,0.2H78L77.9,72.4z"/>
		<path style="fill:#16223B;" d="M83.1,68.1c0-2.6,1.6-4.5,4.3-4.5s4.1,2,4.1,4.9s0,0.2-0.2,0.2h-5.9c0.2,1.2,0.9,1.9,2.1,1.9
			s1.5-0.3,1.9-1c0,0,0.2,0,0.3,0l1.5,0.5c0,0,0.2,0.2,0,0.3c-0.8,1.5-2.2,2.2-3.8,2.2C84.6,72.6,83,70.8,83.1,68.1L83.1,68.1
			L83.1,68.1z M89.2,67.1c-0.2-1-0.8-1.6-1.8-1.6s-1.7,0.6-2,1.6H89.2z"/>
		<path style="fill:#16223B;" d="M111.3,72.4c0,0-0.2,0-0.2-0.2v-0.5c0,0,0-0.2,0-0.3l3.8-5.7h-3.5c0,0-0.2,0-0.2-0.2V64
			c0,0,0-0.2,0.2-0.2h6.5c0,0,0.2,0,0.2,0.2v0.5c0,0,0,0.2,0,0.3l-3.8,5.7h3.7c0,0,0.2,0,0.2,0.2v1.5c0,0,0,0.2-0.2,0.2H111.3z"/>
		<path style="fill:#16223B;" d="M95.4,70.9L92.9,64c0-0.2,0-0.2,0.2-0.2h2.1c0,0,0.2,0,0.2,0.2l1.2,3.7L95.4,70.9
			C95.4,70.9,95.4,70.9,95.4,70.9z"/>
		<path style="fill:#16223B;" d="M99.5,67.9l1.6,4.3c0,0,0,0.2,0.2,0.2h1.1c0,0,0.2,0,0.2-0.2l3-8.3c0-0.2,0-0.2-0.2-0.2h-2.1
			c0,0-0.2,0-0.2,0.2l-1.4,4.2l-1.1-3.6"/>
		<path style="fill:#16223B;" d="M107.6,72.4c0,0-0.2,0-0.2-0.2V64c0,0,0-0.2,0.2-0.2h1.7c0,0,0.2,0,0.2,0.2v8.2c0,0,0,0.2-0.2,0.2
			H107.6z"/>
		<path style="fill:#16223B;" d="M107.2,61.8c0-0.7,0.5-1.2,1.3-1.2s1.3,0.5,1.3,1.2s-0.5,1.2-1.3,1.2S107.2,62.5,107.2,61.8z"/>
		
			<linearGradient id="SVGID_1_" gradientUnits="userSpaceOnUse" x1="99.1778" y1="69.5071" x2="96.2779" y2="60.4071" gradientTransform="matrix(1 0 0 -1 0 133.4)">
			<stop  offset="0" style="stop-color:#5CCCEC"/>
			<stop  offset="1" style="stop-color:#53AAF0"/>
		</linearGradient>
		<path style="fill:url(#SVGID_1_);" d="M95.6,71.4c0,0-0.2,0.6-0.3,0.8c0,0,0,0.3,0.2,0.3h1.8c0,0,0.2,0,0.2-0.2l2.9-8.3
			c0-0.2,0-0.2-0.2-0.2h-2.1c0,0-0.2,0-0.2,0.2C97.9,64,95.6,71.4,95.6,71.4z"/>
		<path style="fill:#3248F6;" d="M125.7,76.4c0,0-0.2,0-0.2-0.2V64c0,0,0-0.2,0.2-0.2h1.6c0,0,0.2,0,0.2,0.2v1
			c0.7-0.9,1.8-1.4,3-1.4c2.5,0,4.2,1.9,4.2,4.6s-1.6,4.6-4.2,4.6s-2.1-0.5-2.8-1.3v4.6c0,0,0,0.2-0.2,0.2h-1.8V76.4z M132.3,68.2
			c0-1.5-1-2.6-2.4-2.6s-2.4,1.1-2.4,2.6s1,2.6,2.4,2.6C131.4,70.8,132.3,69.8,132.3,68.2z"/>
		<path style="fill:#3248F6;" d="M136.3,72.7c-0.1,0-0.2,0-0.2-0.2V64c0,0,0.1-0.2,0.2-0.2h1.6c0.1,0,0.2,0,0.2,0.2v1.1
			c0.7-1,1.7-1.5,2.8-1.5s0.4,0,0.6,0c0.1,0,0.2,0,0.2,0.2v1.8c0,0.2-0.1,0.2-0.2,0.2c-0.2,0-0.5,0-0.8,0c-1.2,0-2.3,0.8-2.3,2.2
			v4.4c0,0-0.1,0.2-0.2,0.2h-1.9L136.3,72.7z"/>
		<path style="fill:#3248F6;" d="M142.4,68.2c0-2.7,1.9-4.6,4.7-4.6s4.7,1.9,4.7,4.6s-1.9,4.6-4.7,4.6S142.4,70.9,142.4,68.2z
			 M149.5,68.2c0-1.5-1-2.6-2.4-2.6s-2.4,1.1-2.4,2.6s1,2.6,2.4,2.6S149.5,69.8,149.5,68.2z"/>
	</g>
</g>
<g>
	<path d="M-0.2,13.2l5-4c0.7-0.6,0.9-1,0.9-1.5V7.5H0.6V3.7h5.2V1.3h4.5v2.4h5.1v3.8h-5.2v0.2c0,0.5,0.2,0.9,0.9,1.5l5,4l-2.7,3.4
		l-5-4L8,12.3l-0.4,0.3l-5,4L-0.2,13.2z M7,23.5c0-3.6,3.1-6.1,7.6-6.1s7.6,2.5,7.6,6.1s-3.1,6-7.6,6S7,27,7,23.5z M17.6,23.5
		c0-1.5-1.1-2.4-3-2.4s-2.9,0.9-2.9,2.4s1.1,2.4,2.9,2.4S17.6,25,17.6,23.5z M18.2,8V1.3h4.7v16h-4.7v-5.4h-3.6V8.1L18.2,8L18.2,8z"
		/>
	<path d="M50.5,16.2V20H40.3v8.9h-4.7V20h-10v-3.8H50.5z M27.5,11.1l6.9-3.8c0.9-0.5,1.1-0.9,1.2-1.3h-7.1V2.2h19.1V6h-7.1
		c0,0.4,0.3,0.8,1.2,1.3l6.9,3.8L46.4,15l-6.8-3.8c-0.6-0.3-1.1-0.7-1.5-1.1c-0.4,0.4-0.9,0.7-1.5,1.1L29.8,15l-2.2-3.9H27.5z"/>
	<path d="M51.2,14l4.9-5.3c0.9-0.9,1.1-1.5,1.1-2V2.9h4.7v3.8c0,0.6,0.2,1,1.1,2.1l4.9,5.3l-3.3,3l-4.9-5.3l-0.2-0.2l-0.2,0.2
		l-4.9,5.3l-3.3-3L51.2,14z M60.8,19.4v5.3H74v3.7H56v-9L60.8,19.4L60.8,19.4z M73.1,1.3V9h3.4v3.9h-3.4v7.8h-4.7V1.3H73.1z"/>
	<path d="M100.4,1.3v14.8h-4.7v-4.9h-3.4c-0.8,3.2-3.6,5.3-7.3,5.3s-7.6-3-7.6-7.3s3.1-7.3,7.6-7.3s6.6,2.1,7.4,5.4h3.4v-6H100.4
		L100.4,1.3z M87.8,9.2c0-2.1-1.1-3.4-3-3.4s-3.1,1.3-3.1,3.4s1.2,3.4,3.1,3.4S87.8,11.3,87.8,9.2z M87.4,17.2v2.1h8.3v-2.1h4.7
		v11.3H82.7V17.2C82.7,17.2,87.4,17.2,87.4,17.2z M87.4,24.8h8.3v-1.9h-8.3V24.8z"/>
	<path d="M117.9,16.8H104V3.2h13.2V7h-8.5v5.9h9.2C117.9,12.9,117.9,16.8,117.9,16.8z M112.4,19v5.6h13.2v3.7h-18v-9.4h4.7L112.4,19
		z M124.8,1.3v7.1h3.4v3.8h-3.4v8.3h-4.7V1.3C120.1,1.3,124.8,1.3,124.8,1.3z"/>
	<path d="M128.8,18.9l4.9-6.6c1.1-1.5,1.3-2,1.3-3.1V7.3h-5V3.5h14.8v3.8h-5v1.9c0,1.1,0.2,1.7,1.3,3.1l4.9,6.6l-3.5,2.7l-5-6.6l0,0
		c0-0.1,0,0,0,0l-5,6.6l-3.5-2.7H128.8z M151.7,1.3v26.6H147V1.3H151.7z"/>
</g>
</svg>
