<svg width="228" height="1250" viewBox="0 0 228 1250" fill="none" xmlns="http://www.w3.org/2000/svg">
<g clip-path="url(#clip0_1388_17739)">
<path d="M84.6886 0.220491C86.5159 -0.429117 87.8835 0.440697 88.3317 2.18033L94.032 22.0429C94.4917 23.5733 93.8022 24.8836 92.2047 25.5332C82.6314 30.7741 79.448 38.6354 79.448 48.2364C79.448 57.8374 81.4937 64.829 88.1019 64.829C93.1126 64.829 95.8478 60.0285 99.491 48.0162L101.088 42.5551C105.076 29.0345 110.535 19.6537 117.281 13.6531C124.039 7.64144 132.072 5.00998 141.197 5.00998C161.252 5.00998 175.824 22.4723 175.824 48.0052C175.824 69.8276 166.251 85.3301 146.208 92.3107C144.381 92.9603 143.013 92.3107 142.565 90.56L135.957 70.6975C135.279 68.9468 135.957 67.8568 137.554 66.987C144.84 63.0563 149.633 57.1658 149.633 47.5648C149.633 40.1439 147.357 34.2533 141.197 34.2533C135.853 34.2533 132.681 39.0538 129.567 50.9009C129.498 51.1652 129.429 51.4404 129.36 51.7157L127.992 56.9566C120.706 84.6805 108.398 94.0613 88.8029 94.0613C67.1625 94.0613 53.2566 75.2888 53.2566 49.3154C53.2566 23.3421 64.186 7.42123 84.6886 0.220491Z" fill="white" fill-opacity="0.05"/>
<path d="M114.535 116.093C150.759 116.093 175.824 138.388 175.824 170.693C175.824 186.404 168.986 199.507 157.367 207.577L170.584 208.227C172.629 208.227 173.549 209.537 173.549 211.277L173.549 231.8C173.549 233.55 172.411 234.64 170.584 234.64L58.4857 234.64C56.6584 234.64 55.5206 233.55 55.5206 231.8L55.5206 211.277C55.5206 209.526 56.4285 208.227 58.4857 208.227L71.7021 207.577C60.0831 199.496 53.2451 186.404 53.2451 170.693C53.2451 138.388 78.3103 116.093 114.535 116.093ZM114.535 202.215C134.807 202.215 148.943 189.773 148.943 171.662C148.943 153.55 134.819 141.108 114.535 141.108C94.2504 141.108 80.1376 153.55 80.1376 171.662C80.1376 189.773 94.2619 202.215 114.535 202.215Z" fill="white" fill-opacity="0.05"/>
<path d="M55.5321 278.054C55.5321 276.304 56.6699 275.213 58.4972 275.213L147.127 275.214L147.127 259.502C147.127 257.751 148.265 256.661 150.092 256.661L170.595 256.661C172.422 256.661 173.56 257.751 173.56 259.502L173.56 275.214L181.076 275.214C209.785 275.214 228.012 290.716 228.012 314.939C228.012 332.621 219.588 345.492 202.947 353.133C201.119 353.783 199.752 353.133 199.074 351.603L191.328 333.92C190.65 332.39 191.098 331.08 192.695 330.21C199.074 326.72 201.119 323.009 201.119 317.119C201.119 308.608 194.511 303.587 181.525 303.587L173.549 303.587L173.549 319.31C173.549 321.06 172.411 322.15 170.584 322.15L150.081 322.15C148.254 322.15 147.116 321.06 147.116 319.31L147.116 303.587L58.4857 303.587C56.6584 303.587 55.5206 302.497 55.5206 300.746L55.5206 278.043L55.5321 278.054Z" fill="white" fill-opacity="0.05"/>
<path d="M114.535 346.153C150.311 346.153 175.824 367.766 175.824 403.34C175.824 438.915 148.943 457.907 108.386 456.817C106.34 456.597 105.421 455.507 105.421 453.757L105.421 376.266C89.2396 378.886 79.448 388.487 79.448 403.55C79.448 415.121 83.9991 423.192 92.8943 428.433C94.4917 429.303 94.7216 430.613 94.2619 432.143L87.194 451.566C86.5159 453.316 85.1483 453.966 83.321 453.096C62.5885 443.055 53.2451 424.282 53.2451 403.329C53.2451 367.755 78.77 346.142 114.535 346.142L114.535 346.153ZM127.521 426.473C141.416 423.853 149.621 415.342 149.621 403.12C149.621 389.809 141.645 380.197 127.521 376.706L127.521 426.473Z" fill="white" fill-opacity="0.05"/>
<path d="M55.5314 717.2C55.5314 715.45 56.6692 714.36 58.4965 714.36L65.5644 714.36C66.932 714.36 68.0698 714.8 69.2075 715.45L147.357 765.216L147.357 719.38C147.357 717.63 148.494 716.54 150.322 716.54L170.594 716.54C172.422 716.54 173.56 717.63 173.56 719.38L173.56 804.941C173.56 806.692 172.422 807.782 170.594 807.782L163.756 807.782C162.389 807.782 161.251 807.342 160.113 806.692L81.7344 757.146L81.7344 805.822C81.7344 807.573 80.5966 808.663 78.7693 808.663L58.4965 808.663C56.6692 808.663 55.5314 807.573 55.5314 805.822L55.5314 717.2Z" fill="white" fill-opacity="0.05"/>
<path d="M76.5858 507.586L171.089 474.346C173.134 473.696 174.502 474.786 174.502 476.746L174.502 504.03C174.502 505.56 173.824 506.65 171.997 507.08L121.866 522.516L76.5743 507.575L76.5858 507.586Z" fill="white" fill-opacity="0.05"/>
<path d="M116.959 562.076L57.8302 582.875C56.2212 583.315 55.5317 584.636 55.5317 586.178L55.5317 600.7C55.5317 602.242 56.2212 603.563 57.8302 604.003L171.066 643.839C173.135 644.499 174.514 643.398 174.514 641.416L174.514 613.913C174.514 612.371 173.824 611.27 171.985 610.83L114.534 592.993L163.998 578.415" fill="white" fill-opacity="0.05"/>
<path d="M55.5322 668.876C55.5322 667.125 56.67 666.035 58.4973 666.035L170.584 666.035C172.411 666.035 173.549 667.125 173.549 668.876L173.549 691.579C173.549 693.33 172.411 694.42 170.584 694.42L58.4858 694.42C56.6585 694.42 55.5207 693.33 55.5207 691.579L55.5207 668.876L55.5322 668.876Z" fill="white" fill-opacity="0.05"/>
<path d="M200.797 663.646C210.589 663.646 217.197 670.847 217.197 680.239C217.197 689.63 210.589 696.831 200.797 696.831C191.006 696.831 184.398 689.63 184.398 680.239C184.398 670.847 191.006 663.646 200.797 663.646Z" fill="white" fill-opacity="0.05"/>
<path d="M69.4376 510.691C69.4376 510.691 61.7262 508.269 58.876 507.377C57.2786 506.881 55.2329 507.465 55.2329 510.074L55.5317 534.088C55.5317 535.629 56.2212 536.951 57.8302 537.391L171.066 575.729C173.135 576.39 174.514 575.289 174.514 573.307L174.514 545.803C174.514 544.261 173.824 543.16 171.985 542.72L69.4376 510.691Z" fill="white" fill-opacity="0.05"/>
<path d="M0.000305047 906.159C0.000305126 904.353 1.18401 903.219 3.06879 903.219L170.411 903.219C172.296 903.219 173.48 904.353 173.48 906.159L173.48 927.387C173.48 929.192 172.537 930.547 170.411 930.547L156.735 931.229C168.756 939.586 175.824 953.129 175.824 969.391C175.824 1002.81 149.897 1024.04 112.42 1024.04C74.9429 1024.04 49.0158 1002.81 49.0158 969.391C49.0158 954.032 55.3827 941.161 66.2201 932.584L3.05731 932.584C1.17255 932.584 -0.0112012 931.45 -0.0112011 929.644L-0.0112001 906.159L0.000305047 906.159ZM112.432 993.768C133.405 993.768 148.024 980.897 148.024 962.157C148.024 943.418 133.405 930.547 112.432 930.547C91.4577 930.547 76.8392 943.418 76.8392 962.157C76.8392 980.897 91.4577 993.768 112.432 993.768Z" fill="white" fill-opacity="0.05"/>
<path d="M51.3832 1046.49C51.3832 1044.68 52.5669 1043.55 54.4517 1043.55L170.411 1043.55C172.296 1043.55 173.48 1044.68 173.48 1046.49L173.48 1067.71C173.48 1069.52 172.537 1070.87 170.411 1070.87L155.092 1071.56C168.296 1079.46 175.123 1093.24 175.123 1107.23C175.123 1110.62 174.893 1112.88 174.422 1115.13C173.951 1116.94 172.767 1117.62 171.124 1117.62L146.851 1117.62C144.725 1117.62 144.024 1116.49 144.254 1114.46C144.495 1111.52 145.197 1108.14 145.197 1103.63C145.197 1087.82 133.888 1072.92 114.558 1072.92L54.4517 1072.92C52.5669 1072.92 51.3832 1071.79 51.3832 1069.98L51.3832 1046.5L51.3832 1046.49Z" fill="white" fill-opacity="0.05"/>
<path d="M112.42 1126.26C149.426 1126.26 175.824 1150.64 175.824 1188.12C175.824 1225.6 149.426 1249.99 112.42 1249.99C75.4141 1249.99 49.0158 1225.6 49.0158 1188.12C49.0158 1150.64 75.4142 1126.26 112.42 1126.26ZM112.42 1219.73C133.394 1219.73 148.012 1206.86 148.012 1188.12C148.012 1169.38 133.394 1156.51 112.42 1156.51C91.4462 1156.51 76.8277 1169.38 76.8277 1188.12C76.8277 1206.86 91.4462 1219.73 112.42 1219.73Z" fill="white" fill-opacity="0.05"/>
</g>
<defs>
<clipPath id="clip0_1388_17739">
<rect width="1250" height="228" fill="white" transform="translate(228) rotate(90)"/>
</clipPath>
</defs>
</svg>
