<svg width="54" height="54" viewBox="0 0 54 54" fill="none" xmlns="http://www.w3.org/2000/svg">
<path d="M27 51.9999C40.8056 51.9999 52 40.8055 52 26.9999C52 13.1944 40.8056 2 27 2C13.1944 2 2 13.1944 2 26.9999C2 40.8055 13.1944 51.9999 27 51.9999Z" fill="white" stroke="white" stroke-miterlimit="10"/>
<mask id="mask0_525_952" style="mask-type:luminance" maskUnits="userSpaceOnUse" x="2" y="2" width="50" height="50">
<path d="M27 51.9999C40.75 51.9999 52 40.7499 52 26.9999C52 13.25 40.75 2 27 2C13.25 2 2 13.25 2 26.9999C2 40.7499 13.25 51.9999 27 51.9999Z" fill="white"/>
</mask>
<g mask="url(#mask0_525_952)">
<g filter="url(#filter0_d_525_952)">
<path d="M7.53786 27.8973L7.64034 27.8544C8.83169 27.3553 10.2131 27.921 10.7122 29.1123L12.2524 32.7889C12.5637 33.5319 12.2138 34.3862 11.4708 34.6974L8.97282 35.7439C8.65256 35.8781 8.28903 35.7292 8.15486 35.4089L6.29268 30.9638C5.7936 29.7724 6.35932 28.391 7.55067 27.8919L7.53786 27.8973Z" fill="#2F5597"/>
<path d="M17.2242 44.2082C16.5576 44.4582 15.8215 44.1249 15.5576 43.4721L13.4603 38.0277L8.77979 36.0138C8.12701 35.736 7.82145 34.9721 8.09923 34.3194C8.37701 33.6666 9.1409 33.361 9.79368 33.6388L14.9742 35.8749C15.2937 36.0138 15.5437 36.2777 15.6687 36.5971L17.9603 42.5416C18.2103 43.2082 17.8909 43.9582 17.2242 44.2082Z" fill="#2F5597"/>
<path d="M22.6122 36.611C22.2511 36.7499 21.8344 36.7221 21.4872 36.5138L15.765 33.0555L11.39 33.8749C10.6956 34.0138 10.015 33.5416 9.89 32.8471C9.75111 32.1527 10.2233 31.4721 10.9178 31.3471L15.765 30.4305C16.0706 30.3749 16.4039 30.4305 16.6678 30.5971L22.8067 34.3055C23.4178 34.6666 23.6122 35.4721 23.2511 36.0694C23.0983 36.3194 22.8622 36.5138 22.6122 36.611Z" fill="#2F5597"/>
<path d="M9.65383 29.2499C9.19549 29.4305 8.6816 29.2083 8.47327 28.7638C8.26494 28.2916 8.47327 27.7499 8.94549 27.5416L12.3205 26.0277L13.5566 22.5138C13.7233 22.0277 14.2649 21.7777 14.7372 21.9444C15.2233 22.1111 15.4733 22.6527 15.3066 23.1249L13.9316 27.0138C13.8483 27.2499 13.6677 27.4444 13.4316 27.5555L9.68161 29.2221C9.68161 29.2221 9.65383 29.236 9.63994 29.236L9.65383 29.2499Z" fill="#2F5597"/>
<path d="M3.24995 31.9721C3.02773 32.0555 2.79162 32.0555 2.58328 31.9721L-1.43061 30.3888C-1.90283 30.2082 -2.13894 29.6666 -1.95838 29.1805C-1.77783 28.6944 -1.23616 28.4721 -0.750049 28.6527L2.88884 30.0832L7.48606 27.9305C7.9444 27.7083 8.49995 27.9166 8.72217 28.3749C8.9444 28.8332 8.73606 29.3888 8.27773 29.611L3.3194 31.9444C3.3194 31.9444 3.27773 31.9582 3.26384 31.9721H3.24995Z" fill="#2F5597"/>
<path d="M6.20853 27.5972C7.34742 27.9027 8.5002 27.2222 8.79186 26.111C9.08353 24.986 8.40298 23.8333 7.26409 23.5416C6.1252 23.2361 4.97242 23.9166 4.68075 25.0277C4.38909 26.1527 5.06964 27.3055 6.20853 27.5972Z" fill="#2F5597"/>
</g>
<path d="M44.0137 24.7777C45.4998 24.6388 46.7498 25.9166 46.5415 27.4027L45.9859 31.4721H42.3887L44.0137 24.7777Z" fill="#2F5597"/>
<path d="M43.7778 14.6111C44.0139 13.6944 44.8472 13.0416 45.7778 13.0416H58.9306C60.0694 13.0416 61 13.9722 61 15.1111V26.8055C61 26.8055 60.9028 26.8055 60.8472 26.8055H58.375V17.2777C58.375 16.5416 57.7778 15.9444 57.0417 15.9444H47.2222C46.6111 15.9444 46.0694 16.3611 45.9306 16.9583L42.375 31.486H39.5L43.7778 14.6111Z" fill="#9BC9FF"/>
<path d="M43.9302 37.8194C45.9996 37.8194 47.6802 39.4999 47.6802 41.5693C47.6802 43.6388 45.9996 45.3193 43.9302 45.3193C41.8607 45.3193 40.1802 43.6388 40.1802 41.5693C40.1802 39.4999 41.8607 37.8194 43.9302 37.8194Z" fill="#9BC9FF"/>
<path d="M43.9313 40.0138C44.8063 40.0138 45.5007 40.7082 45.5007 41.5832C45.5007 42.4582 44.7924 43.1527 43.9313 43.1527C43.0702 43.1527 42.3618 42.4443 42.3618 41.5832C42.3618 40.7221 43.0563 40.0138 43.9313 40.0138Z" fill="white"/>
<path d="M25.4164 41.2916H33.1664C33.972 41.2916 34.6386 40.6388 34.6386 39.8194V18.5694C34.6386 18.25 34.9025 18 35.2081 18H36.9858C37.3053 18 37.5553 18.2639 37.5553 18.5694V42.0832C37.5553 42.9305 36.8608 43.6249 36.0136 43.6249H25.4303C25.1108 43.6249 24.8608 43.361 24.8608 43.0555V41.861C24.8608 41.5416 25.1108 41.2916 25.4164 41.2777V41.2916Z" fill="#9BC9FF"/>
<path d="M27.3609 33.3055H33.2914C34.0276 33.3055 34.6387 33.9027 34.6387 34.6527V39.9582C34.6387 40.6943 34.0414 41.3055 33.2914 41.3055H27.3609C26.6248 41.3055 26.0137 40.7082 26.0137 39.9582V34.6527C26.0137 33.9166 26.6109 33.3055 27.3609 33.3055Z" fill="white"/>
<path d="M27.3609 25.3194H33.2914C34.0276 25.3194 34.6387 25.9166 34.6387 26.6666V31.9722C34.6387 32.7083 34.0414 33.3194 33.2914 33.3194H27.3609C26.6248 33.3194 26.0137 32.7222 26.0137 31.9722V26.6666C26.0137 25.9305 26.6109 25.3194 27.3609 25.3194Z" fill="white"/>
<path d="M31.5275 33.3055V34.7916C31.5275 35.0833 31.2914 35.3194 30.9997 35.3194H29.6386C29.3469 35.3194 29.1108 35.0833 29.1108 34.7916V33.3055H31.5275Z" fill="#9BC9FF"/>
<path d="M31.5275 25.3194V26.8055C31.5275 27.0972 31.2914 27.3333 30.9997 27.3333H29.6386C29.3469 27.3333 29.1108 27.0972 29.1108 26.8055V25.3194H31.5275Z" fill="#9BC9FF"/>
<path d="M39.3057 31.4721H49.4723C50.1251 31.4721 50.7223 31.111 51.0279 30.5416L52.5279 27.7221C52.8334 27.1527 53.4307 26.7916 54.0834 26.7916H60.8473C61.8196 26.7916 62.6112 27.5833 62.6112 28.5555V39.8193C62.6112 40.6943 61.9862 41.4166 61.1529 41.5554C61.0557 41.5832 60.9584 41.5832 60.8612 41.5832H59.9723C59.9723 39.4999 58.2918 37.8332 56.2223 37.8332C54.1529 37.8332 52.4723 39.4999 52.4723 41.5832H47.6807C47.6807 39.4999 46.0001 37.8332 43.9307 37.8332C41.8612 37.8332 40.1807 39.4999 40.1807 41.5832H39.3057C39.2084 41.5832 39.1112 41.5832 39.014 41.5554C38.1807 41.4166 37.5557 40.6943 37.5557 39.8193V33.2499C37.5557 32.2777 38.3473 31.486 39.3057 31.486V31.4721Z" fill="white"/>
<path d="M41.9297 41.5693C41.9297 42.6804 42.8325 43.5693 43.9297 43.5693C45.0269 43.5693 45.9297 42.6666 45.9297 41.5693C45.9297 40.4721 45.0269 39.5693 43.9297 39.5693C42.8325 39.5693 41.9297 40.4721 41.9297 41.5693ZM42.8047 41.5693C42.8047 40.9443 43.3186 40.4443 43.9297 40.4443C44.5408 40.4443 45.0547 40.9582 45.0547 41.5693C45.0547 42.1943 44.5408 42.6943 43.9297 42.6943C43.3186 42.6943 42.8047 42.1804 42.8047 41.5693Z" fill="#2F5597"/>
<path d="M24.4009 41.861V43.0555C24.4009 43.611 24.8592 44.0693 25.4148 44.0693H36.012C37.1092 44.0693 37.9981 43.1805 37.9981 42.0832V41.5555C38.3731 41.8332 38.8175 42.0138 39.3175 42.0138H39.7759C39.9981 44.1249 41.7759 45.7638 43.9425 45.7638C46.1092 45.7638 47.887 44.111 48.1092 42.0138H52.0675C52.2898 44.1249 54.0675 45.7638 56.2342 45.7638C58.4009 45.7638 60.1787 44.111 60.4009 42.0138H60.8592C62.0675 42.0138 63.0675 41.0277 63.0675 39.8055V28.5416C63.0675 27.5416 62.387 26.6944 61.4564 26.4305V15.0972C61.4564 13.7083 60.3314 12.5972 58.9564 12.5972H45.7898C44.637 12.5972 43.6509 13.375 43.3592 14.5L39.1648 31.0694C38.7342 31.0972 38.3314 31.2499 38.012 31.4999V18.5833C38.012 18.0277 37.5537 17.5694 36.9981 17.5694H35.2203C34.6648 17.5694 34.2064 18.0277 34.2064 18.5833V25.1527C33.9425 24.9999 33.637 24.9027 33.3037 24.9027H31.5398H29.1231H27.3592C26.3731 24.9027 25.5814 25.6944 25.5814 26.6805V31.986C25.5814 32.5277 25.8175 32.9999 26.2064 33.3333C25.8314 33.6527 25.5814 34.1388 25.5814 34.6805V39.986C25.5814 40.3193 25.6787 40.6249 25.8314 40.8888H25.4148C24.8592 40.8888 24.4009 41.3471 24.4009 41.9027V41.861ZM57.1648 26.3472H54.0675H53.8731C53.6092 26.3472 53.4009 26.1388 53.4009 25.8749C53.4009 25.6111 53.6092 25.4027 53.8731 25.4027H56.2481C56.4842 25.4027 56.6925 25.2083 56.6925 24.9583V22.6527C56.6925 22.3888 56.9009 22.1805 57.1648 22.1805C57.4287 22.1805 57.637 22.3888 57.637 22.6527V25.8611C57.637 26.1249 57.4287 26.3333 57.1648 26.3333V26.3472ZM52.5398 25.8749C52.5398 26.1944 52.6648 26.486 52.8592 26.7222C52.5675 26.9166 52.3175 27.1805 52.1509 27.5138L50.6509 30.3333C50.4148 30.7638 49.9703 31.0277 49.4842 31.0277H46.4842L46.9842 27.4583C47.0675 26.861 46.9564 26.2638 46.6648 25.7499L47.9009 24.4444L48.3592 25.0138C48.4425 25.1249 48.5675 25.1805 48.6925 25.1805C48.7898 25.1805 48.887 25.1527 48.9703 25.0833C49.1509 24.9305 49.1787 24.6527 49.0259 24.4722L47.5953 22.7222C47.4425 22.5416 47.1648 22.5138 46.9842 22.6666C46.8037 22.8194 46.7759 23.0972 46.9287 23.2777L47.3453 23.7777L46.1231 25.0694C45.6925 24.6805 45.1648 24.4305 44.5953 24.3611L46.3731 17.0694C46.4703 16.6666 46.8314 16.3889 47.2481 16.3889H57.0675C57.5537 16.3889 57.9564 16.7916 57.9564 17.2777V21.5555C57.7342 21.4027 57.4842 21.3194 57.1925 21.3194C56.4564 21.3194 55.8453 21.9166 55.8453 22.6666V24.5277H53.9009C53.1648 24.5277 52.5537 25.1388 52.5537 25.8749H52.5398ZM45.5814 31.0416H42.9287L43.4287 29.0138L44.3592 25.2222C44.8314 25.2499 45.2759 25.4583 45.6092 25.8055C46.012 26.2222 46.1925 26.7916 46.1092 27.361L45.5953 31.0555L45.5814 31.0416ZM60.5675 15.1111V26.3611H58.8175V17.2777C58.8175 16.3055 58.0259 15.5139 57.0398 15.5139H47.2203C46.4009 15.5139 45.6925 16.0694 45.4981 16.8611L43.5814 24.6805C43.5814 24.6805 43.5814 24.6805 43.5814 24.6944L42.6092 28.6527L42.0259 31.0555H40.0537L44.1925 14.7222C44.3731 14 45.0259 13.4861 45.762 13.4861H58.9148C59.8037 13.4861 60.5398 14.2222 60.5398 15.1111H60.5675ZM52.9148 41.5832C52.9148 39.7499 54.4009 38.2638 56.2203 38.2638C58.0398 38.2638 59.5259 39.7499 59.5398 41.5693C59.5398 43.4166 58.0537 44.8888 56.2203 44.8888C54.387 44.8888 52.9148 43.4027 52.9148 41.5832ZM40.6231 41.5832C40.6231 39.7499 42.1092 38.2638 43.9287 38.2638C45.7481 38.2638 47.2481 39.7499 47.2481 41.5693C47.2481 43.4027 45.762 44.8888 43.9287 44.8888C42.0953 44.8888 40.6231 43.4027 40.6231 41.5832ZM37.9981 39.8193V33.2499C37.9981 32.5138 38.5953 31.9305 39.3175 31.9305H42.3731H45.9703H49.4842C50.3037 31.9305 51.0398 31.486 51.4287 30.7638L52.9287 27.9444C53.1648 27.5138 53.6231 27.236 54.0953 27.236H57.1925H58.3731C58.3731 27.236 58.3731 27.236 58.387 27.236H60.9148C61.6092 27.2638 62.1787 27.8333 62.1787 28.5555V39.8193C62.1787 40.5555 61.5814 41.1388 60.8592 41.1388H60.4148C60.1925 39.0277 58.4148 37.3888 56.2481 37.3888C54.0814 37.3888 52.3037 39.0416 52.0814 41.1388H48.1231C47.9009 39.0277 46.1231 37.3888 43.9564 37.3888C41.7898 37.3888 40.012 39.0416 39.7898 41.1388H39.3314C38.5953 41.1388 38.012 40.5416 38.012 39.8193H37.9981ZM27.3453 33.736H28.6648V34.7777C28.6648 35.3055 29.0953 35.7499 29.637 35.7499H30.9981C31.5259 35.7499 31.9703 35.3194 31.9703 34.7777V33.736H33.2898C33.7898 33.736 34.1925 34.1388 34.1925 34.6388V39.8193C34.1925 40.3888 33.7342 40.8471 33.1648 40.8471H27.3592C26.8592 40.8471 26.4564 40.4443 26.4564 39.9443V34.6388C26.4564 34.1388 26.8592 33.736 27.3453 33.736ZM31.0953 34.7777C31.0953 34.7777 31.0537 34.861 31.012 34.861H29.6509C29.6509 34.861 29.5675 34.8194 29.5675 34.7777V33.736H31.0953V34.7777ZM31.0953 25.7499V26.7916C31.0953 26.7916 31.0537 26.8749 31.012 26.8749H29.6509C29.6509 26.8749 29.5675 26.8333 29.5675 26.7916V25.7499H31.0953ZM34.1925 26.6527V31.9583C34.1925 32.4583 33.7898 32.861 33.2898 32.861H31.5259H29.1092H27.3453C26.8453 32.861 26.4425 32.4583 26.4425 31.9583V26.6527C26.4425 26.1527 26.8453 25.7499 27.3453 25.7499H28.6648V26.7916C28.6648 27.3194 29.0953 27.7638 29.637 27.7638H30.9981C31.5259 27.7638 31.9703 27.3333 31.9703 26.7916V25.7499H33.2898C33.7898 25.7499 34.1925 26.1527 34.1925 26.6527ZM25.2898 43.0555V41.861C25.2898 41.7916 25.3453 41.7221 25.4287 41.7221H27.3731H33.1787H33.3037C34.2898 41.7221 35.0814 40.9305 35.0814 39.9443V39.8193V34.6388V31.9583V26.6527V18.5694C35.0814 18.5 35.137 18.4305 35.2203 18.4305H36.9981C37.0675 18.4305 37.137 18.4861 37.137 18.5694V42.0832C37.137 42.6943 36.637 43.1943 36.0259 43.1943H25.4287C25.3592 43.1943 25.2898 43.1388 25.2898 43.0555Z" fill="#2F5597"/>
</g>
<path d="M27 51.9999C40.75 51.9999 52 40.7499 52 26.9999C52 13.25 40.75 2 27 2C13.25 2 2 13.25 2 26.9999C2 40.7499 13.25 51.9999 27 51.9999Z" stroke="#163366" stroke-width="3" stroke-miterlimit="10"/>
<path d="M8.9458 8.94444L45.0569 45.0555" stroke="#163366" stroke-width="3" stroke-miterlimit="10"/>
<path d="M18.4028 29.7499L19.6389 26.8472L19.7778 29.3194L22.0834 26.9305L20.7639 30.3055L23.3751 29.0694L21.1667 31.5277" stroke="#2F5597" stroke-width="0.694444" stroke-miterlimit="10"/>
<defs>
<filter id="filter0_d_525_952" x="-3.01904" y="21.8928" width="27.4512" height="24.3985" filterUnits="userSpaceOnUse" color-interpolation-filters="sRGB">
<feFlood flood-opacity="0" result="BackgroundImageFix"/>
<feColorMatrix in="SourceAlpha" type="matrix" values="0 0 0 0 0 0 0 0 0 0 0 0 0 0 0 0 0 0 127 0" result="hardAlpha"/>
<feOffset dy="1"/>
<feGaussianBlur stdDeviation="0.5"/>
<feComposite in2="hardAlpha" operator="out"/>
<feColorMatrix type="matrix" values="0 0 0 0 0 0 0 0 0 0 0 0 0 0 0 0 0 0 0.1 0"/>
<feBlend mode="normal" in2="BackgroundImageFix" result="effect1_dropShadow_525_952"/>
<feBlend mode="normal" in="SourceGraphic" in2="effect1_dropShadow_525_952" result="shape"/>
</filter>
</defs>
</svg>
