<svg width="54" height="54" viewBox="0 0 54 54" fill="none" xmlns="http://www.w3.org/2000/svg">
<path d="M27 52C40.8071 52 52 40.8071 52 27C52 13.1929 40.8071 2 27 2C13.1929 2 2 13.1929 2 27C2 40.8071 13.1929 52 27 52Z" fill="white" stroke="#163366" stroke-width="3" stroke-miterlimit="10"/>
<g clip-path="url(#clip0_525_957)">
<g filter="url(#filter0_d_525_957)">
<path d="M22.8383 28.405C23.5707 28.8053 24.0868 29.5041 24.2534 30.3158C24.2869 30.4841 24.3061 30.6567 24.3107 30.8248C24.5094 30.6056 24.6847 30.3742 24.7822 30.2057L27.7797 25.0811L34.4926 25.9494C35.4398 26.0725 36.3156 25.4114 36.4462 24.4742C36.5756 23.5374 35.9144 22.679 34.9672 22.556L27.5293 21.5917C26.5797 21.4694 25.6493 21.9196 25.1598 22.7397L22.0821 27.9913L22.8364 28.403L22.8383 28.405Z" fill="#2F5597"/>
<path d="M16.3766 37.5205C16.7177 37.7672 17.142 37.8239 17.5205 37.707C17.7745 37.6286 18.0068 37.4715 18.1771 37.2455C18.6021 36.6796 18.4826 35.8843 17.9134 35.4686L14.4469 32.9434L16.103 30.2193L22.302 34.5579L22.3572 34.5966L22.3589 34.5935C22.7255 34.8375 23.1881 34.9419 23.6583 34.8459L31.1257 33.3422L37.5351 37.6613C37.9861 37.966 38.5353 38.0281 39.0229 37.8776C39.3847 37.766 39.7119 37.5382 39.9437 37.2052C40.4853 36.422 40.2882 35.3583 39.4999 34.8277L32.8885 30.373C32.2499 29.945 31.4485 29.7886 30.6897 29.94L25.11 31.0642C25.9476 29.9904 25.63 28.4384 24.439 27.7849L19.2019 24.9132C17.9821 24.2428 16.4374 24.6626 15.7218 25.8553L11.9008 32.2099C11.4084 33.0206 11.612 34.05 12.3758 34.6076L16.3766 37.5205Z" fill="#2F5597"/>
<path d="M19.4924 25.0003L19.5935 25.0558L21.8227 21.5699C22.0838 21.1619 22.17 20.659 22.0646 20.1985L20.9806 15.3514C20.8281 14.666 20.1416 14.2399 19.4487 14.3968C18.7542 14.5529 18.3167 15.2353 18.4712 15.9188L19.4888 20.4784L16.7901 24.8107C16.8489 24.7887 16.9104 24.7671 16.9703 24.7486C17.8233 24.4854 18.7195 24.575 19.494 25.0012L19.4924 25.0003Z" fill="#2F5597"/>
<path d="M13.6202 27.2789C15.1082 26.756 15.8951 25.1427 15.3778 23.6754C14.8604 22.2082 13.2347 21.4427 11.7466 21.9656C10.2586 22.4885 9.47166 24.1019 9.98902 25.5691C10.5064 27.0363 12.1321 27.8018 13.6202 27.2789Z" fill="#2F5597"/>
<path d="M40.7125 35.1957C40.8575 35.4011 41.0833 35.5169 41.3187 35.5294C41.4887 35.5391 41.6633 35.4941 41.8149 35.3908L44.9772 33.2696C45.3372 33.023 45.4261 32.5367 45.1767 32.182C44.9272 31.8272 44.4343 31.7402 44.0743 31.9868L40.9119 34.108C40.5519 34.3546 40.463 34.8409 40.7125 35.1957Z" fill="#2F5597"/>
<path d="M41.6293 37.2653C41.6859 37.5087 41.8527 37.6994 42.0663 37.7985C42.2207 37.8697 42.4001 37.8925 42.5788 37.8523L46.3128 37.0411C46.7396 36.9445 47.0053 36.5246 46.908 36.1037C46.8107 35.6828 46.3853 35.4201 45.9585 35.5179L42.2245 36.3291C41.7977 36.4256 41.5321 36.8456 41.6293 37.2665L41.6293 37.2653Z" fill="#2F5597"/>
</g>
<path d="M8.94455 8.94444L45.0557 45.0556" stroke="#163366" stroke-width="3" stroke-miterlimit="10"/>
</g>
<defs>
<filter id="filter0_d_525_957" x="8.44119" y="14.3643" width="39.8759" height="26.3698" filterUnits="userSpaceOnUse" color-interpolation-filters="sRGB">
<feFlood flood-opacity="0" result="BackgroundImageFix"/>
<feColorMatrix in="SourceAlpha" type="matrix" values="0 0 0 0 0 0 0 0 0 0 0 0 0 0 0 0 0 0 127 0" result="hardAlpha"/>
<feOffset dy="1.38889"/>
<feGaussianBlur stdDeviation="0.694444"/>
<feComposite in2="hardAlpha" operator="out"/>
<feColorMatrix type="matrix" values="0 0 0 0 0 0 0 0 0 0 0 0 0 0 0 0 0 0 0.15 0"/>
<feBlend mode="normal" in2="BackgroundImageFix" result="effect1_dropShadow_525_957"/>
<feBlend mode="normal" in="SourceGraphic" in2="effect1_dropShadow_525_957" result="shape"/>
</filter>
<clipPath id="clip0_525_957">
<rect width="40.2778" height="40.2778" fill="white" transform="translate(7.55566 6.16667)"/>
</clipPath>
</defs>
</svg>
