<svg width="24" height="24" viewBox="0 0 24 24" fill="none" xmlns="http://www.w3.org/2000/svg">
<path d="M9.79339 6.23081C9.79339 5.55105 10.3724 5 11.0867 5H12.9133C13.6275 5 14.2066 5.55106 14.2066 6.23082C14.2066 7.1783 15.2843 7.77047 16.1465 7.29672C16.7651 6.95684 17.5561 7.15854 17.9132 7.74724L18.8265 9.25267C19.1837 9.84137 18.9717 10.5941 18.3531 10.934C17.4909 11.4078 17.4909 12.5921 18.3531 13.0659C18.9717 13.4058 19.1837 14.1585 18.8265 14.7472L17.9132 16.2527C17.5561 16.8414 16.7651 17.0431 16.1465 16.7032C15.2843 16.2294 14.2066 16.8216 14.2066 17.7691C14.2066 18.4489 13.6275 19 12.9132 19H11.0867C10.3724 19 9.79339 18.4489 9.79339 17.7691C9.79339 16.8217 8.71565 16.2294 7.85345 16.7032C7.23488 17.0431 6.44391 16.8414 6.08677 16.2527L5.17349 14.7472C4.81635 14.1585 5.02829 13.4058 5.64687 13.0659C6.50907 12.5921 6.50907 11.4078 5.64687 10.934C5.02829 10.5941 4.81635 9.84137 5.17349 9.25267L6.08677 7.74722C6.44391 7.15853 7.23488 6.95683 7.85346 7.29671C8.71565 7.77045 9.79339 7.17829 9.79339 6.23081Z" stroke="black"/>
<path d="M14.9421 12C14.9421 13.5464 13.6249 14.8 12 14.8C10.3751 14.8 9.05786 13.5464 9.05786 12C9.05786 10.4536 10.3751 9.2 12 9.2C13.6249 9.2 14.9421 10.4536 14.9421 12Z" stroke="black"/>
</svg>
