<svg width="24" height="24" viewBox="0 0 24 24" fill="none" xmlns="http://www.w3.org/2000/svg">
<path d="M14.2897 20.0001C13.6837 20.6224 12.8877 21 12.0159 21C11.1441 21 10.3481 20.6224 9.74213 20.0001M17.1702 13.1809V10C17.1702 6.67773 14.8712 4 12.0159 4C9.1607 4 6.83051 6.56358 6.83051 10V13.1593C6.83051 13.6425 6.76579 14.1225 6.63884 14.5809L6.00419 16.8724C5.98682 16.9351 6.02562 16.9999 6.08057 16.9999H17.9143C17.9724 16.9999 18.0136 16.9341 17.9958 16.8697L17.3568 14.5626C17.2332 14.1162 17.1702 13.6499 17.1702 13.1809Z" stroke="black" stroke-linecap="round"/>
</svg>
