<svg width="20" height="20" viewBox="0 0 20 20" fill="none" xmlns="http://www.w3.org/2000/svg">
<path d="M7.34046 7.00362C7.34046 8.57039 8.61058 9.8405 10.1773 9.8405C11.7441 9.8405 13.0142 8.57039 13.0142 7.00362C13.0142 5.43685 11.7441 4.16674 10.1773 4.16674" stroke="white" stroke-width="1.25" stroke-linecap="round"/>
<path d="M5.21271 14.0496C5.21271 13.4394 5.59629 12.8951 6.17093 12.6899V12.6899C8.76167 11.7646 11.5928 11.7646 14.1836 12.6899V12.6899C14.7582 12.8951 15.1418 13.4394 15.1418 14.0496V14.9826C15.1418 15.8247 14.3959 16.4716 13.5622 16.3525L13.2842 16.3128C11.2234 16.0184 9.13112 16.0184 7.07025 16.3128L6.79229 16.3525C5.9586 16.4716 5.21271 15.8247 5.21271 14.9826V14.0496Z" stroke="white" stroke-width="1.25"/>
<path d="M14.4325 9.91887C15.6635 9.91887 16.6614 8.92092 16.6614 7.68989C16.6614 6.45886 15.6635 5.46091 14.4325 5.46091" stroke="white" stroke-width="1.25" stroke-linecap="round"/>
<path d="M16.8737 15.0042L17.0921 15.0354C17.7471 15.129 18.3332 14.6207 18.3332 13.959V13.226C18.3332 12.7465 18.0318 12.3189 17.5803 12.1576C17.1299 11.9968 16.6703 11.8715 16.2055 11.7818" stroke="white" stroke-width="1.25" stroke-linecap="round"/>
<path d="M5.56742 9.91887C4.33639 9.91887 3.33844 8.92092 3.33844 7.68989C3.33844 6.45886 4.33639 5.46091 5.56742 5.46091" stroke="white" stroke-width="1.25" stroke-linecap="round"/>
<path d="M3.12621 15.0042L2.90781 15.0354C2.25277 15.129 1.66671 14.6207 1.66671 13.959V13.226C1.66671 12.7465 1.9681 12.3189 2.4196 12.1576C2.86998 11.9968 3.3296 11.8715 3.79437 11.7818" stroke="white" stroke-width="1.25" stroke-linecap="round"/>
</svg>
