<?xml version="1.0" encoding="utf-8"?>
<!-- Generator: Adobe Illustrator 28.0.0, SVG Export Plug-In . SVG Version: 6.00 Build 0)  -->
<svg version="1.1" id="레이어_1" xmlns="http://www.w3.org/2000/svg" xmlns:xlink="http://www.w3.org/1999/xlink" x="0px"
	 y="0px" width="19px" height="19px" viewBox="0 0 19 19" style="enable-background:new 0 0 19 19;" xml:space="preserve">
<style type="text/css">
	.st0{fill:#FFFFFF;}
	.st1{fill:none;stroke:#3248F6;stroke-linecap:round;}
</style>
<circle class="st0" cx="9.5" cy="9.5" r="9"/>
<path class="st1" d="M9.5,4.6v4.9 M9.5,9.5l3.3,2.5 M9.5,9.5C9.5,9.5,9.5,9.5,9.5,9.5z M0.7,11.5c-0.2-0.7-0.2-1.3-0.2-2
	s0.1-1.4,0.2-2 M7.9,0.6c0.5-0.1,1.1-0.1,1.6-0.1c5,0,9,4,9,9c0,5-4,9-9,9c-0.6,0-1.1-0.1-1.6-0.1 M5,1.7C3.8,2.4,2.7,3.4,2,4.6
	 M2,14.4c0.8,1.2,1.8,2.2,3,2.9"/>
</svg>
