<?xml version="1.0" encoding="utf-8"?>
<!-- Generator: Adobe Illustrator 28.0.0, SVG Export Plug-In . SVG Version: 6.00 Build 0)  -->
<svg version="1.1" id="_레이어_2" xmlns="http://www.w3.org/2000/svg" xmlns:xlink="http://www.w3.org/1999/xlink" x="0px"
	 y="0px" width="220.1px" height="37.5px" viewBox="0 0 220.1 37.5" style="enable-background:new 0 0 220.1 37.5;"
	 xml:space="preserve">
<style type="text/css">
	.st0{fill:#231815;}
	.st1{fill:#16223B;}
	.st2{fill:url(#SVGID_1_);}
	.st3{fill:#3248F6;}
</style>
<path class="st0" d="M0,6.8l2.5-2.3C3,4,3.1,3.7,3.1,3.2V3H0.2V1.5h2.9V0.1h1.7v1.4h2.9V3H4.8v0.3c0,0.4,0.1,0.8,0.6,1.3l2.5,2.3
	L6.8,8.2L4.3,5.9C4.2,5.8,4.1,5.7,4,5.5C3.9,5.6,3.8,5.7,3.6,5.9L1.1,8.2L0,6.8L0,6.8z M3.8,12c0-1.9,1.5-3.2,3.8-3.2
	s3.8,1.3,3.8,3.2s-1.6,3.2-3.8,3.2S3.8,13.9,3.8,12z M9.6,12c0-1-0.8-1.7-2-1.7s-2,0.7-2,1.7s0.8,1.7,2,1.7C8.7,13.7,9.6,13,9.6,12z
	 M10.2,4V0H12v8.8h-1.8V5.5H7.6V4.1L10.2,4L10.2,4z"/>
<path class="st0" d="M27.3,8.3v1.5h-5.8v5.1h-1.8V9.8h-5.8V8.3C13.9,8.3,27.3,8.3,27.3,8.3z M14.9,5.9l3.8-2.3
	c0.8-0.5,0.9-0.8,0.9-1.1V2.1h-4.1V0.6h10.1v1.5h-4.1v0.3c0,0.3,0.1,0.7,0.9,1.1l3.8,2.3l-1,1.5L21.5,5c-0.4-0.3-0.7-0.5-1-0.8
	c-0.2,0.3-0.5,0.5-1,0.8l-3.7,2.3L14.9,5.9L14.9,5.9z"/>
<path class="st0" d="M28.4,7.2l2.5-2.9c0.5-0.6,0.6-1.1,0.6-1.6V0.8h1.8v1.9c0,0.5,0.1,1,0.6,1.6l2.5,2.9l-1.3,1.1l-2.5-2.9
	l-0.3-0.3l-0.1,0.3l-2.5,2.9L28.4,7.2L28.4,7.2z M32.4,9.8v3.3h7.7v1.5h-9.5V9.8C30.5,9.8,32.4,9.8,32.4,9.8z M39.6,0.1v4.4h2.1V6
	h-2.1v4.4h-1.8V0.1H39.6z"/>
<path class="st0" d="M54.5,0.1V8h-1.8V4.9h-2.6c-0.3,1.8-1.8,2.9-3.7,2.9c-2.3,0-3.8-1.5-3.8-3.7s1.6-3.7,3.8-3.7
	c2,0,3.4,1.2,3.7,2.9h2.6V0.1H54.5z M48.4,4.1c0-1.3-0.8-2.2-2-2.2s-2.1,0.9-2.1,2.2s0.8,2.2,2.1,2.2S48.4,5.4,48.4,4.1z M47,8.7
	v1.6h5.7V8.7h1.8v6h-9.3v-6H47L47,8.7z M47,13.2h5.7v-1.5H47V13.2z"/>
<path class="st0" d="M64.8,8h-7.7V1.1h6.8v1.5h-5v3.9h5.9V8L64.8,8z M60.7,9.7v3.4h7.7v1.5h-9.5V9.7H60.7z M68,0.1v4.2h2.1v1.5H68
	v4.5h-1.8V0.1H68z"/>
<path class="st0" d="M70.7,9.8l2.7-3.9c0.6-1,0.8-1.4,0.8-2.1v-1h-2.9V1.3h7.6v1.5H76v0.9c0,0.7,0.1,1.1,0.8,2.1l2.7,3.9l-1.4,1
	l-2.7-3.9l-0.3-0.4l-0.3,0.4l-2.7,3.9L70.7,9.8L70.7,9.8z M82.9,0.1v14.3H81V0.1H82.9z"/>
<path class="st0" d="M97.1,10.6h-7.7V1.3h6.9v1.5h-5.1V9H97L97.1,10.6L97.1,10.6z M98.8,0.1h1.8v14.4h-1.8V0.1z"/>
<path class="st0" d="M102.7,9.8l2.7-3.9c0.6-0.9,0.8-1.4,0.8-2.1v-1h-2.9V1.3h7.6v1.5H108v0.9c0,0.7,0.1,1.1,0.8,2.1l2.7,3.9l-1.4,1
	l-2.7-3.9l-0.3-0.4l-0.3,0.4l-2.7,3.9L102.7,9.8L102.7,9.8z M114.9,0.1v14.3H113V0.1H114.9z"/>
<path class="st0" d="M124.7,7.4h-7.3V0.7h6.8v1.5h-5v1h4.8v1.5h-4.8v1.2h5.4v1.5H124.7z M129.1,8.5v3.7h-7.6v1.1h7.9v1.4h-9.7v-3.8
	h7.5v-1h-7.6V8.5H129.1L129.1,8.5z M127.2,3.2V0.1h1.8V8h-1.8V4.6h-2.5V3.2H127.2z"/>
<path class="st0" d="M134.9,7.2l2.5-2.9c0.5-0.6,0.6-1.1,0.6-1.6V0.8h1.8v1.9c0,0.5,0.1,1,0.6,1.6l2.5,2.9l-1.3,1.1l-2.5-2.9
	l-0.3-0.3l-0.3,0.3L136,8.3L134.9,7.2L134.9,7.2z M138.9,9.8v3.3h7.7v1.5h-9.5V9.8H138.9z M146.2,0.1v4.4h2.1V6h-2.1v4.4h-1.8V0.1
	H146.2z"/>
<path class="st0" d="M161.1,0.1V8h-1.8V4.9h-2.6c-0.3,1.8-1.8,2.9-3.7,2.9c-2.3,0-3.8-1.5-3.8-3.7s1.6-3.7,3.8-3.7
	c2,0,3.4,1.2,3.7,2.9h2.6V0.1H161.1z M155,4.1c0-1.3-0.8-2.2-2-2.2s-2.1,0.9-2.1,2.2s0.8,2.2,2.1,2.2C154.2,6.3,155,5.4,155,4.1z
	 M153.6,8.7v1.6h5.7V8.7h1.8v6h-9.3v-6H153.6L153.6,8.7z M153.6,13.2h5.7v-1.5h-5.7V13.2z"/>
<path class="st0" d="M163.2,4.5c0-2.2,1.6-3.7,3.8-3.7c2.3,0,3.8,1.5,3.8,3.7s-1.6,3.7-3.8,3.7S163.2,6.6,163.2,4.5z M169,4.5
	c0-1.3-0.8-2.2-2-2.2s-2,0.9-2,2.2s0.8,2.2,2,2.2C168.2,6.7,169,5.8,169,4.5z M167.3,9.7v3.4h7.7v1.5h-9.5V9.7H167.3L167.3,9.7z
	 M172.7,0.1h1.9v4.3h2v1.5h-2v4.4h-1.9V0.1z"/>
<path class="st0" d="M177.5,7.1l2.6-2.6c0.5-0.5,0.6-1,0.6-1.5V2.4h-2.9V0.9h7.4v1.5h-2.8V3c0,0.5,0.1,0.9,0.6,1.5l2.6,2.6l-1.2,1.2
	l-2.6-2.6l-0.3-0.3l-0.3,0.3l-2.6,2.6L177.5,7.1L177.5,7.1z M181.8,9.7v3.4h7.7v1.5H180V9.7H181.8z M187.6,5h-2.5V3.6h2.5V0.1h1.8
	v10.2h-1.8V5z"/>
<path class="st0" d="M195.7,4.5v2.8h4.4v1.5h-8.8V7.4h2.6V4.5H195.7L195.7,4.5z M199.4,6.2h-1.8V2.4h-5.5V0.9h7.3V6.2L199.4,6.2z
	 M195.6,10.2v2.9h8v1.5h-9.8v-4.4H195.6L195.6,10.2z M203,0.1v4.6h1.9v1.5H203v4.4h-1.8V0.1H203z"/>
<path class="st0" d="M211.6,5.1V2.7h-5.1V1.3h6.9v5.3h-5v2.8h6v1.5h-7.9V5.1H211.6L211.6,5.1z M215.9,0h1.8v14.4h-1.8V0z"/>
<path class="st0" d="M116.5,32.8v1.1h-1.8V22h1.8v5.1c0.7-1,1.7-1.2,2.3-1.2c2.2,0,3.8,1.7,3.8,4c0,2.4-1.6,4-3.8,4
	C118.3,34,117.3,33.7,116.5,32.8z M120.9,30c0-1.5-0.9-2.5-2.1-2.5c-1.2,0-2.2,1.1-2.2,2.5c0,1.4,1,2.5,2.2,2.5
	C120,32.5,120.9,31.5,120.9,30z"/>
<path class="st0" d="M124.7,37.3l1.7-4.1l-3.2-7.3h1.9l2.2,5.3l2.1-5.3h1.9l-3,7.1l-1.8,4.2L124.7,37.3L124.7,37.3z"/>
<path class="st1" d="M134.8,31.9c0-0.1,0-0.2,0.1-0.2l1.4-0.4c0.1,0,0.2,0,0.2,0.1c0.4,0.6,0.9,0.8,1.6,0.8s1.1-0.1,1.1-0.6
	c0-0.3-0.3-0.5-1.1-0.8l-0.4-0.1c-0.9-0.3-1.6-0.6-2-1.1c-0.4-0.4-0.6-1-0.6-1.6c0-1.3,1.2-2.3,2.9-2.3c1.5,0,2.5,0.6,3,1.9
	c0,0.1,0,0.2-0.1,0.2l-1.4,0.4c-0.1,0-0.2,0-0.3-0.1c-0.3-0.5-0.7-0.8-1.3-0.8c-0.5,0-0.9,0.1-0.9,0.6c0,0.4,0.3,0.6,1.1,0.8
	c0,0,0,0,0.1,0l0.4,0.1c1.9,0.5,2.5,1.3,2.5,2.6c0,1.4-1.3,2.3-3.1,2.3C136.4,34,135.3,33.3,134.8,31.9L134.8,31.9z"/>
<path class="st1" d="M142.7,30c0-2.4,1.5-4,3.7-4c1.1,0,2,0.4,2.5,1.2v-0.9c0-0.1,0.1-0.2,0.2-0.2h1.4c0.1,0,0.2,0.1,0.2,0.2v7.4
	c0,0.1-0.1,0.2-0.2,0.2h-1.3c-0.1,0-0.2-0.1-0.2-0.2v-0.9c-0.6,0.8-1.4,1.2-2.5,1.2C144.2,34,142.7,32.4,142.7,30z M148.6,30
	c0-1.3-0.9-2.3-2.1-2.3c-1.2,0-2.1,0.9-2.1,2.3c0,1.3,0.9,2.3,2.1,2.3C147.7,32.2,148.6,31.3,148.6,30z"/>
<path class="st1" d="M153.8,33.9c-0.1,0-0.2-0.1-0.2-0.2v-5.8h-1.1c-0.1,0-0.2-0.1-0.2-0.2v-1.3c0-0.1,0.1-0.2,0.2-0.2h1.1v-0.6
	c0-1.9,1.1-3.1,2.7-3.1c1.2,0,2.1,0.6,2.6,1.6c0,0.1,0,0.2-0.1,0.3l-1.2,0.5c-0.1,0-0.2,0-0.3-0.1c-0.2-0.4-0.5-0.6-0.9-0.6
	c-0.6,0-0.9,0.4-0.9,1.3V26h1.1c0.1,0,0.2,0.1,0.2,0.2v1.3c0,0.1-0.1,0.2-0.2,0.2h-1.1v5.8c0,0.1-0.1,0.2-0.2,0.2h-1.5V33.9
	L153.8,33.9z"/>
<path class="st1" d="M158.4,30c0-2.3,1.5-4,3.9-4s3.7,1.8,3.7,4.4c0,0.1-0.1,0.2-0.2,0.2h-5.3c0.2,1.1,0.8,1.7,1.9,1.7
	c0.8,0,1.3-0.3,1.7-0.9c0.1-0.1,0.1-0.1,0.3-0.1l1.3,0.5c0.1,0,0.2,0.1,0.1,0.3c-0.7,1.4-2,2-3.4,2C159.9,34,158.4,32.3,158.4,30
	L158.4,30L158.4,30z M163.9,29.1c-0.2-0.9-0.8-1.4-1.6-1.4c-0.9,0-1.6,0.5-1.8,1.4H163.9z"/>
<path class="st1" d="M183.8,33.9c-0.1,0-0.2-0.1-0.2-0.2v-0.5c0-0.1,0-0.2,0.1-0.2l3.4-5.1H184c-0.1,0-0.2-0.1-0.2-0.2v-1.3
	c0-0.1,0.1-0.2,0.2-0.2h5.8c0.1,0,0.2,0.1,0.2,0.2v0.4c0,0.1,0,0.2-0.1,0.2l-3.4,5.1h3.3c0.1,0,0.2,0.1,0.2,0.2v1.3
	c0,0.1-0.1,0.2-0.2,0.2L183.8,33.9L183.8,33.9z"/>
<path class="st1" d="M169.5,32.5l-2.3-6.2c0-0.1,0-0.2,0.2-0.2h1.9c0.1,0,0.2,0,0.2,0.2l1.1,3.3L169.5,32.5L169.5,32.5L169.5,32.5z"
	/>
<path class="st1" d="M173.2,29.8l1.4,3.9c0,0.1,0.1,0.1,0.2,0.1h1c0.1,0,0.2,0,0.2-0.1l2.7-7.4c0-0.1,0-0.2-0.2-0.2h-1.9
	c-0.1,0-0.2,0-0.2,0.2l-1.2,3.8l-1-3.2"/>
<path class="st1" d="M180.5,33.9c-0.1,0-0.2-0.1-0.2-0.2v-7.4c0-0.1,0.1-0.2,0.2-0.2h1.6c0.1,0,0.2,0.1,0.2,0.2v7.4
	c0,0.1-0.1,0.2-0.2,0.2H180.5z"/>
<path class="st1" d="M180.1,24.3c0-0.6,0.5-1.1,1.1-1.1s1.1,0.4,1.1,1.1s-0.5,1.1-1.1,1.1C180.6,25.4,180.1,25,180.1,24.3z"/>
<linearGradient id="SVGID_1_" gradientUnits="userSpaceOnUse" x1="172.9578" y1="754.906" x2="170.356" y2="746.7494" gradientTransform="matrix(1 0 0 -1 0 781.15)">
	<stop  offset="0" style="stop-color:#5CCCEC"/>
	<stop  offset="1" style="stop-color:#53AAF0"/>
</linearGradient>
<path class="st2" d="M169.7,32.9c0,0-0.2,0.5-0.2,0.7c0,0.1,0,0.2,0.2,0.2h1.6c0.1,0,0.2,0,0.2-0.1l2.6-7.4c0-0.1,0-0.2-0.2-0.2H172
	c-0.1,0-0.2,0-0.2,0.2L169.7,32.9z"/>
<path class="st3" d="M196.7,37.5c-0.1,0-0.2-0.1-0.2-0.2v-11c0-0.1,0.1-0.2,0.2-0.2h1.5c0.1,0,0.2,0.1,0.2,0.2v0.9
	c0.6-0.8,1.5-1.3,2.6-1.3c2.3,0,3.7,1.7,3.7,4.2s-1.5,4.2-3.7,4.2c-1,0-1.9-0.4-2.5-1.1v4.1c0,0.1-0.1,0.2-0.2,0.2H196.7L196.7,37.5
	z M202.7,30.1c0-1.4-0.9-2.3-2.2-2.3s-2.2,1-2.2,2.3c0,1.4,0.9,2.3,2.2,2.3S202.7,31.5,202.7,30.1z"/>
<path class="st3" d="M206.3,34.1c-0.1,0-0.2-0.1-0.2-0.2v-7.6c0-0.1,0.1-0.2,0.2-0.2h1.5c0.1,0,0.2,0.1,0.2,0.2v1
	c0.5-0.9,1.5-1.3,2.4-1.3c0.2,0,0.4,0,0.5,0s0.2,0.1,0.2,0.2v1.6c0,0.1-0.1,0.2-0.2,0.2c-0.2,0-0.4-0.1-0.7-0.1
	c-1.1,0-2.1,0.7-2.1,2v3.9c0,0.1-0.1,0.2-0.2,0.2L206.3,34.1L206.3,34.1z"/>
<path class="st3" d="M211.7,30.1c0-2.4,1.7-4.2,4.2-4.2s4.2,1.7,4.2,4.2s-1.7,4.2-4.2,4.2S211.7,32.6,211.7,30.1z M218.1,30.1
	c0-1.4-0.9-2.3-2.2-2.3s-2.2,1-2.2,2.3c0,1.4,0.9,2.3,2.2,2.3S218.1,31.5,218.1,30.1z"/>
</svg>
