<svg width="160" height="28" viewBox="0 0 160 28" fill="none" xmlns="http://www.w3.org/2000/svg">
<g clip-path="url(#clip0_43_1380)">
<path d="M0.0282682 17.5996C-0.0548816 17.3752 0.0564546 17.2072 0.279127 17.1522L2.82154 16.4521C3.01743 16.3957 3.18514 16.4804 3.26829 16.6765C3.93913 17.8522 4.94538 18.2431 6.17431 18.2431C7.40323 18.2431 8.29815 17.9919 8.29815 17.1804C8.29815 16.565 7.68369 16.2291 6.14612 15.7817L5.4471 15.5856C3.71646 15.0958 2.51572 14.4254 1.74764 13.5969C0.978149 12.7671 0.641322 11.7805 0.641322 10.6599C0.641322 8.19708 2.8765 6.40747 6.14471 6.40747C8.93798 6.40747 10.9223 7.58313 11.8158 10.0445C11.899 10.269 11.8158 10.4369 11.5917 10.492L9.04932 11.3035C8.82524 11.3868 8.68571 11.3035 8.57438 11.1073C8.07125 10.2125 7.31727 9.62396 6.08834 9.62396C5.13846 9.62396 4.38447 9.90341 4.38447 10.6599C4.38447 11.3162 4.99894 11.7057 6.51536 12.0882C6.54919 12.0967 6.58442 12.1051 6.61965 12.1136L7.29049 12.2816C10.8392 13.1764 12.0399 14.6879 12.0399 17.0943C12.0399 19.7519 9.63701 21.4596 6.31242 21.4596C2.98784 21.4596 0.949963 20.1174 0.0282682 17.5996Z" fill="#16223B"/>
<path d="M14.8599 13.9343C14.8599 9.48565 17.7137 6.40747 21.8487 6.40747C23.8598 6.40747 25.5369 7.24723 26.5699 8.67412L26.653 7.05105C26.653 6.79983 26.8208 6.68692 27.0434 6.68692H29.6704C29.8945 6.68692 30.034 6.82664 30.034 7.05105V20.8175C30.034 21.0419 29.8945 21.1816 29.6704 21.1816H27.0434C26.8193 21.1816 26.653 21.0701 26.653 20.8175L26.5699 19.1944C25.5355 20.6213 23.8598 21.4611 21.8487 21.4611C17.7137 21.4611 14.8599 18.3829 14.8599 13.9343ZM25.8836 13.9343C25.8836 11.4446 24.291 9.70865 21.9727 9.70865C19.6544 9.70865 18.0618 11.4432 18.0618 13.9343C18.0618 16.4253 19.6544 18.1585 21.9727 18.1585C24.291 18.1585 25.8836 16.4239 25.8836 13.9343Z" fill="#16223B"/>
<path d="M35.5908 21.1803C35.3668 21.1803 35.2272 21.0405 35.2272 20.8161V9.9317H33.2161C32.9921 9.9317 32.8525 9.79197 32.8525 9.56757V7.0497C32.8525 6.82529 32.9921 6.68557 33.2161 6.68557H35.2272V5.76254C35.2272 2.23695 37.2116 -0.00146484 40.3121 -0.00146484C42.5754 -0.00146484 44.2229 1.03306 45.201 3.07671C45.2841 3.30112 45.201 3.46907 45.0051 3.55234L42.7417 4.5036C42.5458 4.58687 42.3781 4.53183 42.2668 4.33565C41.82 3.55234 41.3451 3.30112 40.5911 3.30112C39.5017 3.30112 38.8591 4.11265 38.8591 5.70749V6.68698H40.8716C41.0956 6.68698 41.2352 6.8267 41.2352 7.05111V9.56898C41.2352 9.79338 41.0956 9.93311 40.8716 9.93311H38.8591V20.8175C38.8591 21.0419 38.7195 21.1817 38.4955 21.1817H35.5894L35.5908 21.1803Z" fill="#16223B"/>
<path d="M44.3076 13.9343C44.3076 9.54069 47.0741 6.40747 51.6276 6.40747C56.1811 6.40747 58.6121 9.70865 58.4726 14.6893C58.4444 14.9406 58.3049 15.0535 58.0808 15.0535H48.162C48.4975 17.0407 49.7264 18.2431 51.6543 18.2431C53.1355 18.2431 54.1686 17.6842 54.8394 16.5919C54.9507 16.3957 55.1184 16.3674 55.3143 16.4239L57.8004 17.2919C58.0245 17.3752 58.1076 17.5431 57.9963 17.7675C56.711 20.3136 54.3081 21.4611 51.6262 21.4611C47.0726 21.4611 44.3062 18.3264 44.3062 13.9343H44.3076ZM54.5885 12.3394C54.2531 10.6331 53.1637 9.62537 51.5994 9.62537C49.8955 9.62537 48.6652 10.6049 48.2184 12.3394H54.5885Z" fill="#16223B"/>
<path d="M91.8016 21.1802C91.5775 21.1802 91.438 21.0405 91.438 20.8161V19.9481C91.438 19.7802 91.4944 19.6404 91.5775 19.5007L97.9476 9.90345H92.0806C91.8566 9.90345 91.717 9.76373 91.717 9.53932V7.04968C91.717 6.82527 91.8566 6.68555 92.0806 6.68555H103.032C103.257 6.68555 103.396 6.82527 103.396 7.04968V7.88944C103.396 8.05739 103.34 8.19712 103.257 8.33684L96.9146 17.9623H103.145C103.369 17.9623 103.509 18.1021 103.509 18.3265V20.8161C103.509 21.0405 103.369 21.1802 103.145 21.1802H91.8016Z" fill="#16223B"/>
<path d="M64.9709 18.5946L60.7162 6.989C60.6331 6.73778 60.7726 6.56982 61.0234 6.56982H64.5157C64.7116 6.56982 64.8511 6.65309 64.9061 6.8775L66.882 13.0339L64.9695 18.596L64.9709 18.5946Z" fill="#16223B"/>
<path d="M71.9458 13.6365L74.608 20.8979C74.6644 21.0955 74.8335 21.1802 75.0308 21.1802H76.8897C77.087 21.1802 77.2561 21.0955 77.3125 20.8979L82.4114 6.99177C82.496 6.73772 82.355 6.56836 82.1014 6.56836H78.5809C78.3836 6.56836 78.2426 6.65304 78.1863 6.87886L75.9032 13.9343L74.0372 7.85975" fill="#16223B"/>
<path d="M85.616 21.1803C85.392 21.1803 85.2524 21.0406 85.2524 20.8162V7.05114C85.2524 6.82674 85.392 6.68701 85.616 6.68701H88.5221C88.7461 6.68701 88.8857 6.82674 88.8857 7.05114V20.8176C88.8857 21.042 88.7461 21.1817 88.5221 21.1817H85.616V21.1803Z" fill="#16223B"/>
<path d="M84.9468 3.34067C84.9468 2.13819 85.8685 1.32666 87.0706 1.32666C88.2728 1.32666 89.1945 2.13819 89.1945 3.34067C89.1945 4.54315 88.2728 5.35469 87.0706 5.35469C85.8685 5.35469 84.9468 4.54315 84.9468 3.34067Z" fill="#16223B"/>
<path d="M65.3683 19.4724C65.3683 19.4724 65.0583 20.4195 64.9441 20.7695C64.8807 20.9657 64.9554 21.2169 65.2894 21.2169L68.3631 21.1802C68.5605 21.1802 68.7296 21.0955 68.7859 20.8979L73.6932 6.99177C73.7778 6.73772 73.6368 6.56836 73.3831 6.56836H69.8627C69.6654 6.56836 69.5244 6.65304 69.4681 6.87886L65.3683 19.4724Z" fill="url(#paint0_linear_43_1380)"/>
<path d="M115.988 27.9999C115.757 27.9999 115.612 27.8545 115.612 27.6231V7.07222C115.612 6.84076 115.757 6.69539 115.988 6.69539H118.706C118.937 6.69539 119.11 6.81112 119.11 7.07222L119.197 8.75174C120.267 7.27546 122.001 6.40747 124.082 6.40747C128.359 6.40747 131.077 9.5915 131.077 14.194C131.077 18.7964 128.359 21.9804 124.082 21.9804C122.116 21.9804 120.469 21.1985 119.371 19.8676V27.6245C119.371 27.8559 119.226 28.0013 118.994 28.0013H115.988V27.9999ZM127.202 14.1925C127.202 11.6168 125.555 9.82155 123.156 9.82155C120.757 9.82155 119.11 11.6168 119.11 14.1925C119.11 16.7683 120.757 18.5635 123.156 18.5635C125.555 18.5635 127.202 16.7683 127.202 14.1925Z" fill="#3248F6"/>
<path d="M133.95 21.6898C133.719 21.6898 133.574 21.5444 133.574 21.3129V7.07231C133.574 6.84085 133.719 6.69548 133.95 6.69548H136.667C136.898 6.69548 137.072 6.81121 137.072 7.07231L137.159 8.95366C138.171 7.332 139.934 6.49365 141.725 6.49365C142.159 6.49365 142.448 6.52188 142.737 6.57975C142.968 6.63761 143.056 6.78298 143.056 6.98481V9.9656C143.056 10.2267 142.91 10.3128 142.651 10.2846C142.275 10.2549 141.842 10.1688 141.264 10.1688C139.241 10.1688 137.334 11.5576 137.334 13.9315V21.3129C137.334 21.5444 137.189 21.6898 136.958 21.6898H133.951H133.95Z" fill="#3248F6"/>
<path d="M144.161 14.194C144.161 9.64937 147.282 6.40747 152.08 6.40747C156.877 6.40747 159.999 9.64937 159.999 14.194C159.999 18.7385 156.877 21.9804 152.08 21.9804C147.282 21.9804 144.161 18.7385 144.161 14.194ZM156.126 14.194C156.126 11.6182 154.478 9.82296 152.08 9.82296C149.681 9.82296 148.033 11.6182 148.033 14.194C148.033 16.7697 149.681 18.5649 152.08 18.5649C154.478 18.5649 156.126 16.7697 156.126 14.194Z" fill="#3248F6"/>
</g>
<defs>
<linearGradient id="paint0_linear_43_1380" x1="71.5355" y1="6.9212" x2="66.6563" y2="22.1979" gradientUnits="userSpaceOnUse">
<stop stop-color="#5CCCEC"/>
<stop offset="1" stop-color="#53AAF0"/>
</linearGradient>
<clipPath id="clip0_43_1380">
<rect width="160" height="28" fill="white"/>
</clipPath>
</defs>
</svg>
