<svg width="54" height="54" viewBox="0 0 54 54" fill="none" xmlns="http://www.w3.org/2000/svg">
<path d="M27 52C40.8071 52 52 40.8071 52 27C52 13.1929 40.8071 2 27 2C13.1929 2 2 13.1929 2 27C2 40.8071 13.1929 52 27 52Z" fill="white" stroke="#163366" stroke-width="3" stroke-miterlimit="10"/>
<g filter="url(#filter0_d_525_956)">
<path d="M24.2033 13.8937V13.8598L24.1978 13.8263C24.0974 13.2143 24.5586 12.6277 25.188 12.6277H29.5998C30.1865 12.6277 30.6701 13.2297 30.5281 13.7916L30.5154 13.8418V13.8937V13.92L28.7722 22.3005H25.9464L24.2033 13.92V13.8937Z" fill="white" stroke="#2F5597" stroke-width="0.833333"/>
<path d="M27.3611 14.7989C27.8469 14.7989 28.2767 15.1851 28.2767 15.7146C28.2767 16.2589 27.9055 16.6302 27.3611 16.6302C26.8753 16.6302 26.4455 16.244 26.4455 15.7146C26.4455 15.1851 26.8753 14.7989 27.3611 14.7989Z" fill="#9BC9FF" stroke="#2F5597" stroke-width="0.833333"/>
<path d="M32.6362 16.7029L32.636 16.7029L32.6321 16.7159L31.302 21.1896C31.0733 21.8632 30.4587 22.3004 29.8091 22.3004H29.6207L31.2683 14.3793H32.0496C32.6781 14.3793 33.1754 15.0202 32.9847 15.6575L32.6362 16.7029Z" fill="white" stroke="#2F5597" stroke-width="0.833333"/>
<path d="M21.8079 15.6759L21.8022 15.6544L21.7942 15.6336C21.5563 15.0171 22.0281 14.3793 22.664 14.3793H23.4499L25.0975 22.3004H24.909C24.2583 22.3004 23.6447 21.8667 23.4163 21.19L22.0877 16.7214L21.8079 15.6759Z" fill="white" stroke="#2F5597" stroke-width="0.833333"/>
<path d="M42.6945 31.464C43.935 31.464 44.9378 32.4668 44.9378 33.7073C44.9378 34.3019 44.6974 34.8953 44.29 35.3027C43.8785 35.7142 43.3525 35.9506 42.6945 35.9506H12.0242C10.7838 35.9506 9.78092 34.9477 9.78092 33.7073C9.78092 33.1126 10.0213 32.5192 10.4288 32.1118C10.8402 31.7003 11.3662 31.464 12.0242 31.464H42.6945Z" fill="white" stroke="#2F5597" stroke-width="0.833333"/>
<path d="M12.4478 30.6306C12.611 24.7022 16.2457 19.6245 21.3516 17.3934L22.5517 21.4297L22.5537 21.4366L22.556 21.4434C22.8914 22.4442 23.8147 23.1291 24.8412 23.1291H29.7416C30.767 23.1291 31.6913 22.4498 32.027 21.4427L32.0272 21.4428L32.0311 21.4297L33.2324 17.3894C38.4729 19.6184 42.1145 24.699 42.2779 30.6306H12.4478Z" fill="#9BC9FF" stroke="#2F5597" stroke-width="0.833333"/>
<path d="M42.6952 31.0416C42.6935 31.0396 42.692 31.0377 42.6907 31.0359C42.6904 31.0354 42.6901 31.035 42.6898 31.0346C42.6853 26.8663 41.0221 22.9864 38.1887 20.1788C38.8886 20.8551 39.5304 21.596 40.1067 22.3942C41.8543 24.9488 42.8057 27.8999 42.8332 30.9129C42.8002 30.953 42.7663 30.9874 42.7344 31.0134C42.7178 31.027 42.7047 31.0358 42.6952 31.0416ZM33.1473 16.8692C33.3942 16.9715 33.638 17.0796 33.8784 17.1935C33.6329 17.0805 33.3832 16.9735 33.1296 16.8728L33.1328 16.8632L33.1473 16.8692Z" fill="#2F5597" stroke="#2F5597" stroke-width="0.833333"/>
<path d="M21.7139 16.8819C15.9402 19.2439 12.2156 24.7241 12.1652 30.9286C12.1295 30.9792 12.1025 31.0118 12.0764 31.0352C12.0631 31.0471 12.0544 31.0523 12.0497 31.0546H12.0404C12.0402 31.0545 12.0399 31.0543 12.0397 31.0542C12.0367 31.052 12.0333 31.0492 12.0299 31.0458C12.0266 31.0424 12.0237 31.0389 12.0215 31.0358C12.0212 31.0354 12.0209 31.035 12.0207 31.0346C12.0242 27.9041 12.9794 24.9147 14.7478 22.3987L14.7478 22.3987L14.752 22.3925C16.4538 19.8756 18.8287 17.9734 21.6827 16.8833C21.6911 16.8812 21.702 16.8796 21.7141 16.8796C21.7141 16.8796 21.7142 16.8796 21.7142 16.8796C21.7141 16.8804 21.714 16.8812 21.7139 16.8819Z" fill="#2F5597" stroke="#2F5597" stroke-width="0.833333"/>
<path d="M31.7192 21.3485C31.5092 22.0819 30.8024 22.6423 30.0005 22.72H29.8102H29.1263C29.1261 22.7199 29.1259 22.7197 29.1256 22.7195C29.1249 22.7191 29.1242 22.7185 29.1235 22.718C29.1248 22.7169 29.1261 22.7159 29.1273 22.715C29.1277 22.7148 29.128 22.7146 29.1283 22.7143H29.8102C30.702 22.7143 31.4165 22.1674 31.6796 21.2981L33.3575 15.7664L33.3608 15.7557L33.3634 15.7449C33.4603 15.3507 33.3705 14.8803 33.1672 14.5753L33.1605 14.5652L33.1532 14.5556C32.8729 14.1839 32.4791 13.9702 32.0506 13.9702H30.9473C30.947 13.9701 30.9468 13.9699 30.9466 13.9698C30.9459 13.9693 30.9452 13.9688 30.9445 13.9682C30.9458 13.9671 30.9471 13.9661 30.9483 13.9653C30.9486 13.965 30.949 13.9648 30.9493 13.9646H32.0506C32.4724 13.9646 32.9095 14.1796 33.1826 14.5606C33.4494 14.9326 33.5108 15.3622 33.4004 15.8213L31.7211 21.342L31.7211 21.342L31.7192 21.3485Z" fill="#2F5597" stroke="#2F5597" stroke-width="0.833333"/>
<path d="M23.0014 21.277L23.0016 21.2769L22.9975 21.2634L21.3182 15.7423C21.2081 15.2886 21.269 14.8591 21.5361 14.4866C21.8095 14.1052 22.2422 13.8906 22.668 13.8906H23.7714C23.7716 13.8908 23.7718 13.8909 23.7721 13.8911C23.7728 13.8916 23.7735 13.8921 23.7742 13.8927C23.7729 13.8937 23.7716 13.8947 23.7704 13.8956C23.77 13.8958 23.7697 13.8961 23.7694 13.8963H22.668C22.2395 13.8963 21.8458 14.1099 21.5655 14.4816C21.2521 14.8972 21.2627 15.3184 21.3568 15.6772L21.3589 15.685L21.3612 15.6927L23.0439 21.2247L23.0437 21.2248L23.0475 21.2361C23.306 22.0058 24.0022 22.6404 24.9131 22.6404H25.597C25.5972 22.6405 25.5974 22.6407 25.5976 22.6408C25.6007 22.643 25.604 22.6458 25.6074 22.6492C25.6107 22.6526 25.6135 22.6559 25.6157 22.6591C25.6126 22.6846 25.6024 22.7025 25.5928 22.713C25.5921 22.7138 25.5914 22.7146 25.5907 22.7152H25.4413L25.4367 22.7198H24.9085C24.0364 22.7198 23.2314 22.1367 23.0014 21.277Z" fill="#2F5597" stroke="#2F5597" stroke-width="0.833333"/>
<path d="M28.6693 15.9881C28.6806 15.9198 28.6865 15.85 28.6865 15.779C28.6865 15.0603 28.0804 14.4542 27.3617 14.4542C26.6429 14.4542 26.0368 15.0603 26.0368 15.779C26.0368 15.85 26.0427 15.9199 26.0541 15.9882C26.036 15.8987 26.0265 15.8057 26.0265 15.7099C26.0265 14.9581 26.6099 14.3748 27.3617 14.3748C28.1135 14.3748 28.6968 14.9581 28.6968 15.7099C28.6968 15.8056 28.6873 15.8987 28.6693 15.9881Z" fill="#2F5597" stroke="#2F5597" stroke-width="0.833333"/>
<path d="M42.6941 36.3055H12.0238C10.5717 36.3055 9.361 35.091 9.361 33.6427C9.361 32.922 9.66179 32.2557 10.1477 31.7654C10.6321 31.2814 11.3022 30.9799 12.0238 30.9799H42.6941C44.142 30.9799 45.3569 32.1948 45.3569 33.6427C45.3569 34.359 45.0598 35.0215 44.5791 35.5109C44.006 36.0135 43.3346 36.3055 42.6941 36.3055ZM12.0238 31.0547C11.3572 31.0547 10.6914 31.3064 10.1894 31.8083C9.68716 32.3106 9.43584 32.9811 9.43584 33.6427C9.43584 35.0622 10.6043 36.2307 12.0238 36.2307H42.6941C43.3557 36.2307 44.0262 35.9794 44.5285 35.4771C45.0308 34.9748 45.2821 34.3043 45.2821 33.6427C45.2821 32.2232 44.1136 31.0547 42.6941 31.0547H12.0238Z" fill="#2F5597" stroke="#2F5597" stroke-width="0.833333"/>
<path d="M25.6069 22.7199C25.6043 22.7199 25.6016 22.7198 25.599 22.7195L25.5954 22.702L25.1327 20.4597L25.55 22.3858L25.6212 22.7142H25.9572H28.7601H29.0502L29.049 22.7199H25.6069ZM24.0537 12.7599C23.934 12.8795 23.8445 13.0144 23.7846 13.1582C23.8354 12.9876 23.9208 12.8286 24.0366 12.69C24.3248 12.3448 24.7037 12.1389 25.1182 12.1389H29.53C29.9404 12.1389 30.3237 12.3454 30.6116 12.69L30.9233 12.4297L30.6116 12.69C30.7256 12.8266 30.8102 12.9829 30.8613 13.1506C30.8011 13.0079 30.7114 12.8742 30.5912 12.7567C30.3256 12.4969 29.9499 12.2875 29.53 12.2875H25.1182C24.7013 12.2875 24.3241 12.4895 24.0537 12.7599Z" fill="#2F5597" stroke="#2F5597" stroke-width="0.833333"/>
<path d="M24.2033 13.8937V13.8598L24.1978 13.8263C24.0974 13.2143 24.5586 12.6277 25.188 12.6277H29.5998C30.1865 12.6277 30.6701 13.2297 30.5281 13.7916L30.5154 13.8418V13.8937V13.92L28.7722 22.3005H25.9464L24.2033 13.92V13.8937Z" fill="white" stroke="#2F5597" stroke-width="0.833333"/>
<path d="M27.3611 14.7989C27.8469 14.7989 28.2767 15.1851 28.2767 15.7146C28.2767 16.2589 27.9055 16.6302 27.3611 16.6302C26.8753 16.6302 26.4455 16.244 26.4455 15.7146C26.4455 15.1851 26.8753 14.7989 27.3611 14.7989Z" fill="#FBE6F0" stroke="#2F5597" stroke-width="0.833333"/>
<path d="M32.6362 16.7029L32.636 16.7029L32.6321 16.7159L31.302 21.1896C31.0733 21.8632 30.4587 22.3004 29.8091 22.3004H29.6207L31.2683 14.3793H32.0496C32.6781 14.3793 33.1754 15.0202 32.9847 15.6575L32.6362 16.7029Z" fill="white" stroke="#2F5597" stroke-width="0.833333"/>
<path d="M21.8079 15.6759L21.8022 15.6544L21.7942 15.6336C21.5563 15.0171 22.0281 14.3793 22.664 14.3793H23.4499L25.0975 22.3004H24.909C24.2583 22.3004 23.6447 21.8667 23.4163 21.19L22.0877 16.7214L21.8079 15.6759Z" fill="white" stroke="#2F5597" stroke-width="0.833333"/>
<path d="M42.6945 31.0473C44.1651 31.0473 45.3545 32.2367 45.3545 33.7073C45.3545 34.408 45.0733 35.1087 44.5846 35.5974C44.096 36.086 43.4644 36.3672 42.6945 36.3672H12.0242C10.5536 36.3672 9.36426 35.1779 9.36426 33.7073C9.36426 33.0066 9.64547 32.3058 10.1341 31.8172C10.6228 31.3285 11.2544 31.0473 12.0242 31.0473H42.6945Z" fill="white" stroke="#2F5597" stroke-width="2.08333"/>
<path d="M42.6957 31.0473H12.0254C12.0254 24.6025 15.8433 19.5182 21.4445 17.2778L22.9511 21.311C23.2323 22.15 24.0022 22.7124 24.8412 22.7124H29.7416C30.5806 22.7124 31.3505 22.1546 31.6317 21.311L33.25 17.2778C38.9941 19.5182 42.7003 24.6025 42.7003 31.0473H42.6957Z" stroke="#2F5597" stroke-width="2.08333"/>
<path d="M23.0014 21.277L23.0016 21.2769L22.9975 21.2634L21.3182 15.7423C21.2081 15.2886 21.269 14.8591 21.5361 14.4866C21.8095 14.1052 22.2422 13.8906 22.668 13.8906H23.7714C23.7716 13.8908 23.7718 13.8909 23.7721 13.8911C23.7728 13.8916 23.7735 13.8921 23.7742 13.8927C23.7729 13.8937 23.7716 13.8947 23.7704 13.8956C23.77 13.8958 23.7697 13.8961 23.7694 13.8963H22.668C22.2395 13.8963 21.8458 14.1099 21.5655 14.4816C21.2521 14.8972 21.2627 15.3184 21.3568 15.6772L21.3589 15.685L21.3612 15.6927L23.0439 21.2247L23.0437 21.2248L23.0475 21.2361C23.306 22.0058 24.0022 22.6404 24.9131 22.6404H25.597C25.5972 22.6405 25.5974 22.6407 25.5976 22.6408C25.6007 22.643 25.604 22.6458 25.6074 22.6492C25.6107 22.6526 25.6135 22.6559 25.6157 22.6591C25.6126 22.6846 25.6024 22.7025 25.5928 22.713C25.5921 22.7138 25.5914 22.7146 25.5907 22.7152H25.4413L25.4367 22.7198H24.9085C24.0364 22.7198 23.2314 22.1367 23.0014 21.277Z" fill="#2F5597" stroke="#2F5597" stroke-width="0.833333"/>
<path d="M28.6693 15.9881C28.6806 15.9198 28.6865 15.85 28.6865 15.779C28.6865 15.0603 28.0804 14.4542 27.3617 14.4542C26.6429 14.4542 26.0368 15.0603 26.0368 15.779C26.0368 15.85 26.0427 15.9199 26.0541 15.9882C26.036 15.8987 26.0265 15.8057 26.0265 15.7099C26.0265 14.9581 26.6099 14.3748 27.3617 14.3748C28.1135 14.3748 28.6968 14.9581 28.6968 15.7099C28.6968 15.8056 28.6873 15.8987 28.6693 15.9881Z" fill="#2F5597" stroke="#2F5597" stroke-width="0.833333"/>
</g>
<path d="M8.94455 8.94444L45.0557 45.0556" stroke="#163366" stroke-width="3" stroke-miterlimit="10"/>
<defs>
<filter id="filter0_d_525_956" x="6.93387" y="11.7222" width="40.851" height="28.4645" filterUnits="userSpaceOnUse" color-interpolation-filters="sRGB">
<feFlood flood-opacity="0" result="BackgroundImageFix"/>
<feColorMatrix in="SourceAlpha" type="matrix" values="0 0 0 0 0 0 0 0 0 0 0 0 0 0 0 0 0 0 127 0" result="hardAlpha"/>
<feOffset dy="1.38889"/>
<feGaussianBlur stdDeviation="0.694444"/>
<feComposite in2="hardAlpha" operator="out"/>
<feColorMatrix type="matrix" values="0 0 0 0 0 0 0 0 0 0 0 0 0 0 0 0 0 0 0.15 0"/>
<feBlend mode="normal" in2="BackgroundImageFix" result="effect1_dropShadow_525_956"/>
<feBlend mode="normal" in="SourceGraphic" in2="effect1_dropShadow_525_956" result="shape"/>
</filter>
</defs>
</svg>
