<svg width="54" height="54" viewBox="0 0 54 54" fill="none" xmlns="http://www.w3.org/2000/svg">
<path d="M27 51.9999C40.8056 51.9999 52 40.8055 52 27C52 13.1945 40.8056 2.00006 27 2.00006C13.1944 2.00006 2 13.1945 2 27C2 40.8055 13.1944 51.9999 27 51.9999Z" fill="white" stroke="#163366" stroke-width="3" stroke-miterlimit="10"/>
<path d="M42.8333 24.2639C43.9722 24.2639 44.9027 23.3611 44.9027 22.2361V19.5278C44.9027 18.4028 43.9722 17.5 42.8333 17.5H42.4861V15.4723C42.4861 15.0973 42.1805 14.7917 41.7916 14.7917H39.0416C38.6666 14.7917 38.3472 15.0973 38.3472 15.4723V17.5H30.7777V15.4723C30.7777 15.0973 30.4722 14.7917 30.0833 14.7917H27.3333C26.9583 14.7917 26.6388 15.0973 26.6388 15.4723V17.5H26.2916C25.1527 17.5 24.2222 18.4028 24.2222 19.5278V22.2361C24.2222 23.3611 25.1527 24.2639 26.2916 24.2639H26.6388V24.9445H26.2916C25.1527 24.9445 24.2222 25.8472 24.2222 26.9722V29.6806C24.2222 30.8056 25.1527 31.7083 26.2916 31.7083H26.6388V34.4167C26.6388 34.7917 26.9444 35.0972 27.3333 35.0972H30.0833C30.4583 35.0972 30.7777 34.7917 30.7777 34.4167V31.7083H38.3472V34.4167C38.3472 34.7917 38.6527 35.0972 39.0416 35.0972H41.7916C42.1666 35.0972 42.4861 34.7917 42.4861 34.4167V31.7083H42.8333C43.9722 31.7083 44.9027 30.8056 44.9027 29.6806V26.9722C44.9027 25.8472 43.9722 24.9445 42.8333 24.9445H42.4861V24.2639H42.8333ZM39.7361 16.1528H41.1111V17.5H39.7361V16.1528ZM39.9999 18.8472L37.9305 22.9028H34.3055L36.3749 18.8472H39.9999ZM38.3611 24.2639V24.9445H30.7916V24.2639H38.3611ZM31.2222 18.8472H34.8472L32.7777 22.9028H29.1527L31.2222 18.8472ZM29.4166 24.2639V24.9445H28.0416V24.2639H29.4166ZM28.0277 16.1528H29.4027V17.5H28.0277V16.1528ZM26.3055 22.9167C25.9305 22.9167 25.6111 22.6111 25.6111 22.2361V19.5278C25.6111 19.1528 25.9166 18.8472 26.3055 18.8472H29.6666L27.5972 22.9028H26.3055V22.9167ZM26.3055 30.3472C25.9305 30.3472 25.6111 30.0417 25.6111 29.6667V26.9583C25.6111 26.5833 25.9166 26.2778 26.3055 26.2778H29.6666L27.5972 30.3333H26.3055V30.3472ZM29.4166 33.7361H28.0416V31.7083H29.4166V33.7361ZM32.7777 30.3472H29.1527L31.2222 26.2917H34.8472L32.7777 30.3472ZM37.9305 30.3472H34.3055L36.3749 26.2917H39.9999L37.9305 30.3472ZM39.7361 24.9445V24.2639H41.1111V24.9445H39.7361ZM41.1249 33.7361H39.7499V31.7083H41.1249V33.7361ZM42.8333 26.2917C43.2083 26.2917 43.5277 26.5972 43.5277 26.9722V29.6806C43.5277 30.0556 43.2222 30.3611 42.8333 30.3611H39.4722L41.5416 26.3056H42.8333V26.2917ZM39.4861 22.9167L41.5555 18.8611H42.8472C43.2222 18.8611 43.5416 19.1667 43.5416 19.5417V22.25C43.5416 22.625 43.2361 22.9306 42.8472 22.9306H39.4861V22.9167Z" fill="#2F5597"/>
<path d="M39.7373 24.2639H41.1123V24.9445H39.7373V24.2639Z" fill="white"/>
<path d="M28.0278 24.2639H29.4028V24.9445H28.0278V24.2639Z" fill="white"/>
<path d="M39.7373 31.7083H41.1123V33.7361H39.7373V31.7083Z" fill="white"/>
<path d="M28.0278 31.7083H29.4028V33.7361H28.0278V31.7083Z" fill="white"/>
<path d="M39.7373 16.1528H41.1123V17.5H39.7373V16.1528Z" fill="white"/>
<path d="M28.0293 16.1528H29.4043V17.5H28.0293V16.1528Z" fill="white"/>
<path d="M43.5277 26.9722V29.6805C43.5277 30.0555 43.2222 30.3611 42.8333 30.3611H39.4722L41.5416 26.3056H42.8333C43.2083 26.3056 43.5277 26.6111 43.5277 26.9861V26.9722Z" fill="white"/>
<path d="M34.8336 26.2917L32.7642 30.3472H29.1392L31.2086 26.2917H34.8336Z" fill="white"/>
<path d="M39.9996 18.8472L37.9302 22.9028H34.3052L36.3746 18.8472H39.9996Z" fill="white"/>
<path d="M29.6664 18.8472L27.597 22.9028H26.3053C25.9303 22.9028 25.6108 22.5972 25.6108 22.2222V19.5139C25.6108 19.1389 25.9164 18.8334 26.3053 18.8334H29.6664V18.8472Z" fill="white"/>
<path d="M29.6664 26.2917L27.597 30.3472H26.3053C25.9303 30.3472 25.6108 30.0417 25.6108 29.6667V26.9583C25.6108 26.5833 25.9164 26.2778 26.3053 26.2778H29.6664V26.2917Z" fill="#9BC9FF"/>
<path d="M39.9996 26.2917L37.9302 30.3472H34.3052L36.3746 26.2917H39.9996Z" fill="#9BC9FF"/>
<path d="M43.5277 19.5278V22.2361C43.5277 22.6111 43.2222 22.9167 42.8333 22.9167H39.4722L41.5416 18.8611H42.8333C43.2083 18.8611 43.5277 19.1667 43.5277 19.5417V19.5278Z" fill="#9BC9FF"/>
<path d="M34.8336 18.8472L32.7642 22.9028H29.1392L31.2086 18.8472H34.8336Z" fill="#9BC9FF"/>
<path d="M14.2395 21.0037L15.42 20.9673C16.2491 20.9416 16.9445 21.5954 16.9701 22.4245L17.1634 28.6781C17.176 29.0856 16.8627 29.4189 16.4552 29.4314L12.9981 29.5383L12.7823 22.5539C12.7567 21.7248 13.4104 21.0294 14.2395 21.0037Z" fill="#2F5597"/>
<path d="M9.02293 28.826C8.92451 28.826 8.84015 28.826 8.74173 28.7839C8.20746 28.6292 7.88408 28.0668 8.03874 27.5325L8.88233 24.5519C8.95263 24.3128 9.09323 24.116 9.30413 23.9895L13.3955 21.2759C13.8595 20.9666 14.4922 21.0932 14.8015 21.5571C15.1108 22.0211 14.9843 22.6538 14.5203 22.9631L10.7523 25.4658L10.0071 28.0809C9.88058 28.5308 9.47285 28.812 9.03699 28.812L9.02293 28.826Z" fill="#2F5597"/>
<path d="M13.536 20.1652C14.5764 20.9104 16.0246 20.6854 16.7557 19.659C17.4868 18.6327 17.2478 17.1845 16.2074 16.4394C15.167 15.6942 13.7188 15.9191 12.9877 16.9455C12.2566 17.9719 12.4956 19.42 13.536 20.1652Z" fill="#2F5597"/>
<path d="M10.7382 40.6222C10.5836 40.6222 10.4149 40.5941 10.2602 40.5378C9.52909 40.2707 9.14948 39.4693 9.41661 38.7382L13.6767 26.9842C13.9439 26.2531 14.7453 25.8735 15.4764 26.1406C16.2075 26.4077 16.5871 27.2092 16.32 27.9403L12.0599 39.6942C11.849 40.2707 11.3147 40.6222 10.7382 40.6222Z" fill="#2F5597"/>
<path d="M19.8486 25.8735H15.6447C15.0542 25.8735 14.5762 25.3954 14.5762 24.8049C14.5762 24.2144 15.0542 23.7364 15.6447 23.7364H19.8486C20.4391 23.7364 20.9172 24.2144 20.9172 24.8049C20.9172 25.3954 20.4391 25.8735 19.8486 25.8735Z" fill="#2F5597"/>
<path d="M21.1278 40.341C20.4811 40.341 19.8906 39.8911 19.75 39.2162L18.7939 34.6608L15.0399 30.3586C14.5338 29.768 14.59 28.8823 15.1665 28.3761C15.757 27.87 16.6428 27.9262 17.1489 28.5167L21.156 33.1002C21.3106 33.283 21.4231 33.5079 21.4793 33.7329L22.5057 38.6538C22.6604 39.4131 22.1823 40.1582 21.4231 40.3269C21.3247 40.341 21.2263 40.3551 21.1278 40.3551V40.341Z" fill="#2F5597"/>
<path d="M9.84521 8.3334L45.9563 44.4444" stroke="#163366" stroke-width="3" stroke-miterlimit="10"/>
</svg>
