<svg width="20" height="20" viewBox="0 0 20 20" fill="none" xmlns="http://www.w3.org/2000/svg">
<path fill-rule="evenodd" clip-rule="evenodd" d="M8.5 16C8.5 16.8284 9.17157 17.5 10 17.5C10.8284 17.5 11.5 16.8284 11.5 16V15.0326C11.8492 14.9287 12.1831 14.7894 12.4976 14.619L13.182 15.3033C13.7678 15.8891 14.7175 15.8891 15.3033 15.3033C15.8891 14.7175 15.8891 13.7678 15.3033 13.182L14.619 12.4976C14.7894 12.1831 14.9287 11.8492 15.0326 11.5H16C16.8284 11.5 17.5 10.8284 17.5 10C17.5 9.17157 16.8284 8.5 16 8.5H15.0326C14.9287 8.15085 14.7894 7.81691 14.619 7.50235L15.3033 6.81802C15.8891 6.23224 15.8891 5.28249 15.3033 4.6967C14.7175 4.11092 13.7678 4.11092 13.182 4.6967L12.4976 5.38103C12.1831 5.21058 11.8492 5.07132 11.5 4.96741V4C11.5 3.17157 10.8284 2.5 10 2.5C9.17157 2.5 8.5 3.17157 8.5 4V4.96741C8.15085 5.07132 7.81691 5.21058 7.50235 5.38103L6.81802 4.69671C6.23224 4.11092 5.28249 4.11092 4.6967 4.69671C4.11092 5.28249 4.11092 6.23224 4.6967 6.81803L5.38103 7.50236C5.21058 7.81692 5.07132 8.15085 4.96741 8.5H4C3.17157 8.5 2.5 9.17157 2.5 10C2.5 10.8284 3.17157 11.5 4 11.5H4.96741C5.07132 11.8492 5.21058 12.1831 5.38103 12.4976L4.69669 13.182C4.11091 13.7678 4.11091 14.7175 4.69669 15.3033C5.28248 15.8891 6.23223 15.8891 6.81801 15.3033L7.50235 14.619C7.81691 14.7894 8.15084 14.9287 8.5 15.0326V16ZM9.99999 12.25C11.2426 12.25 12.25 11.2426 12.25 9.99999C12.25 8.75735 11.2426 7.74999 9.99999 7.74999C8.75735 7.74999 7.74999 8.75735 7.74999 9.99999C7.74999 11.2426 8.75735 12.25 9.99999 12.25Z" fill="#2E384D"/>
</svg>
