<svg width="66" height="66" viewBox="0 0 66 66" fill="none" xmlns="http://www.w3.org/2000/svg">
<circle cx="32.6211" cy="33.3599" r="32.5" fill="#0089CF"/>
<path d="M20.5957 28.2143C21.5945 27.2797 24.2273 25.9364 26.7689 28.0398C29.3104 30.1433 31.7425 28.9163 32.6409 28.0398" stroke="white" stroke-width="1.5"/>
<path d="M32.605 28.0732C33.6037 27.1386 36.2366 25.7953 38.7782 27.8987C41.3197 30.0021 43.7518 28.7751 44.6501 27.8987" stroke="white" stroke-width="1.5"/>
<path d="M20.5957 33.5844C21.5945 32.6498 24.2273 31.3065 26.7689 33.4099C29.3104 35.5134 31.7425 34.2864 32.6409 33.4099" stroke="white" stroke-width="1.5"/>
<path d="M32.605 33.4433C33.6037 32.5087 36.2366 31.1654 38.7782 33.2688C41.3197 35.3723 43.7518 34.1453 44.6501 33.2688" stroke="white" stroke-width="1.5"/>
<path d="M20.5957 38.9565C21.5945 38.0219 24.2273 36.6786 26.7689 38.782C29.3104 40.8854 31.7425 39.6584 32.6409 38.782" stroke="white" stroke-width="1.5"/>
<path d="M32.605 38.8154C33.6037 37.8808 36.2366 36.5375 38.7782 38.6409C41.3197 40.7443 43.7518 39.5173 44.6501 38.6409" stroke="white" stroke-width="1.5"/>
</svg>
