<svg width="79" height="82" viewBox="0 0 79 82" fill="none" xmlns="http://www.w3.org/2000/svg">
<path d="M43.3304 19.5926L26.6012 24.1103C20.5331 25.749 17.952 30.284 19.5833 36.4198L25.1083 57.2011C26.7664 63.4374 31.2301 65.9838 37.2982 64.3451L54.0275 59.8273C60.1934 58.1622 62.696 53.7347 61.038 47.4983L55.513 26.717C53.8817 20.5812 49.4964 17.9275 43.3304 19.5926Z" fill="url(#paint0_linear_488_7805)"/>
<g filter="url(#filter0_f_488_7805)">
<rect width="26.883" height="22.6115" rx="11.3057" transform="matrix(-0.25694 -0.966427 0.965417 -0.26071 31.8828 57.0957)" fill="#0062FF" fill-opacity="0.5"/>
</g>
<g filter="url(#filter1_b_488_7805)">
<path d="M59.062 30.3457H41.7426C35.4605 30.3457 31.8027 34.0529 31.8027 40.4052V61.9195C31.8027 68.3759 35.4605 71.9998 41.7426 71.9998H59.062C65.4455 71.9998 68.9999 68.3759 68.9999 61.9195V40.4052C68.9999 34.0529 65.4455 30.3457 59.062 30.3457Z" fill="#3EA0FE" fill-opacity="0.35"/>
<path d="M59.062 29.8457H41.7426C38.5032 29.8457 35.877 30.8035 34.0611 32.642C32.2461 34.4796 31.3027 37.1342 31.3027 40.4052V61.9195C31.3027 65.2406 32.245 67.9018 34.0619 69.7329C35.8793 71.5645 38.5063 72.4998 41.7426 72.4998H59.062C62.3471 72.4998 64.9754 71.5655 66.781 69.7316C68.5855 67.8988 69.4999 65.2368 69.4999 61.9195V40.4052C69.4999 37.1379 68.5845 34.4827 66.7818 32.6434C64.9777 30.8025 62.3502 29.8457 59.062 29.8457Z" stroke="url(#paint1_linear_488_7805)" stroke-linecap="round" stroke-linejoin="round"/>
</g>
<g filter="url(#filter2_bd_488_7805)">
<mask id="path-5-inside-1_488_7805" fill="white">
<path fill-rule="evenodd" clip-rule="evenodd" d="M42.3006 40.0312V40.0521C41.41 40.0521 40.6888 40.781 40.6888 41.6766C40.6888 42.5721 41.41 43.3011 42.3006 43.3011H48.4774C49.3681 43.3011 50.0914 42.5721 50.0914 41.6537C50.0914 40.7602 49.3681 40.0312 48.4774 40.0312H42.3006ZM58.502 52.7153H42.3006C41.41 52.7153 40.6888 51.9863 40.6888 51.0908C40.6888 50.1952 41.41 49.4642 42.3006 49.4642H58.502C59.3906 49.4642 60.1139 50.1952 60.1139 51.0908C60.1139 51.9863 59.3906 52.7153 58.502 52.7153ZM58.5022 62.2331H42.3008C41.6808 62.3164 41.0816 62.004 40.7509 61.4833C40.4203 60.9418 40.4203 60.2545 40.7509 59.7338C41.0816 59.1923 41.6808 58.9008 42.3008 58.9632H58.5022C59.3267 59.0465 59.9488 59.7547 59.9488 60.6086C59.9488 61.4396 59.3267 62.1498 58.5022 62.2331Z"/>
</mask>
<path fill-rule="evenodd" clip-rule="evenodd" d="M42.3006 40.0312V40.0521C41.41 40.0521 40.6888 40.781 40.6888 41.6766C40.6888 42.5721 41.41 43.3011 42.3006 43.3011H48.4774C49.3681 43.3011 50.0914 42.5721 50.0914 41.6537C50.0914 40.7602 49.3681 40.0312 48.4774 40.0312H42.3006ZM58.502 52.7153H42.3006C41.41 52.7153 40.6888 51.9863 40.6888 51.0908C40.6888 50.1952 41.41 49.4642 42.3006 49.4642H58.502C59.3906 49.4642 60.1139 50.1952 60.1139 51.0908C60.1139 51.9863 59.3906 52.7153 58.502 52.7153ZM58.5022 62.2331H42.3008C41.6808 62.3164 41.0816 62.004 40.7509 61.4833C40.4203 60.9418 40.4203 60.2545 40.7509 59.7338C41.0816 59.1923 41.6808 58.9008 42.3008 58.9632H58.5022C59.3267 59.0465 59.9488 59.7547 59.9488 60.6086C59.9488 61.4396 59.3267 62.1498 58.5022 62.2331Z" fill="url(#paint2_linear_488_7805)"/>
<path d="M42.3006 40.0521V40.4521H42.7006V40.0521H42.3006ZM42.3006 40.0312V39.6312H41.9006V40.0312H42.3006ZM42.3008 62.2331V61.8331H42.274L42.2475 61.8366L42.3008 62.2331ZM58.5022 62.2331V62.6331H58.5224L58.5424 62.6311L58.5022 62.2331ZM40.7509 61.4833L40.4095 61.6918L40.4132 61.6977L40.7509 61.4833ZM40.7509 59.7338L41.0886 59.9483L41.0923 59.9423L40.7509 59.7338ZM42.3008 58.9632L42.2607 59.3612L42.2807 59.3632H42.3008V58.9632ZM58.5022 58.9632L58.5424 58.5653L58.5224 58.5632H58.5022V58.9632ZM42.7006 40.0521V40.0312H41.9006V40.0521H42.7006ZM41.0888 41.6766C41.0888 40.9987 41.6342 40.4521 42.3006 40.4521V39.6521C41.1858 39.6521 40.2888 40.5634 40.2888 41.6766H41.0888ZM42.3006 42.9011C41.6342 42.9011 41.0888 42.3545 41.0888 41.6766H40.2888C40.2888 42.7898 41.1858 43.7011 42.3006 43.7011V42.9011ZM48.4774 42.9011H42.3006V43.7011H48.4774V42.9011ZM49.6914 41.6537C49.6914 42.3575 49.1409 42.9011 48.4774 42.9011V43.7011C49.5952 43.7011 50.4914 42.7868 50.4914 41.6537H49.6914ZM48.4774 40.4313C49.1449 40.4313 49.6914 40.9788 49.6914 41.6537H50.4914C50.4914 40.5416 49.5913 39.6312 48.4774 39.6312V40.4313ZM42.3006 40.4313H48.4774V39.6312H42.3006V40.4313ZM42.3006 53.1153H58.502V52.3153H42.3006V53.1153ZM40.2888 51.0908C40.2888 52.204 41.1858 53.1153 42.3006 53.1153V52.3153C41.6342 52.3153 41.0888 51.7687 41.0888 51.0908H40.2888ZM42.3006 49.0642C41.1851 49.0642 40.2888 49.9783 40.2888 51.0908H41.0888C41.0888 50.4122 41.6348 49.8642 42.3006 49.8642V49.0642ZM58.502 49.0642H42.3006V49.8642H58.502V49.0642ZM60.5139 51.0908C60.5139 49.9779 59.6152 49.0642 58.502 49.0642V49.8642C59.1661 49.8642 59.7139 50.4125 59.7139 51.0908H60.5139ZM58.502 53.1153C59.6145 53.1153 60.5139 52.2043 60.5139 51.0908H59.7139C59.7139 51.7684 59.1668 52.3153 58.502 52.3153V53.1153ZM42.3008 62.6331H58.5022V61.8331H42.3008V62.6331ZM40.4132 61.6977C40.8195 62.3375 41.5651 62.7355 42.3541 62.6295L42.2475 61.8366C41.7966 61.8972 41.3436 61.6705 41.0886 61.2689L40.4132 61.6977ZM40.4132 59.5194C39.9979 60.1734 40.0023 61.0249 40.4095 61.6918L41.0923 61.2749C40.8382 60.8587 40.8426 60.3356 41.0886 59.9483L40.4132 59.5194ZM42.3409 58.5653C41.5692 58.4875 40.821 58.8515 40.4095 59.5254L41.0923 59.9423C41.3421 59.5332 41.7925 59.314 42.2607 59.3612L42.3409 58.5653ZM58.5022 58.5632H42.3008V59.3632H58.5022V58.5632ZM60.3488 60.6086C60.3488 59.5595 59.5812 58.6702 58.5424 58.5653L58.462 59.3612C59.0723 59.4229 59.5488 59.9499 59.5488 60.6086H60.3488ZM58.5424 62.6311C59.5784 62.5264 60.3488 61.6377 60.3488 60.6086H59.5488C59.5488 61.2415 59.0751 61.7732 58.462 61.8351L58.5424 62.6311Z" fill="url(#paint3_linear_488_7805)" mask="url(#path-5-inside-1_488_7805)"/>
</g>
<defs>
<filter id="filter0_f_488_7805" x="0.497559" y="0.773438" width="77.6924" height="80.7676" filterUnits="userSpaceOnUse" color-interpolation-filters="sRGB">
<feFlood flood-opacity="0" result="BackgroundImageFix"/>
<feBlend mode="normal" in="SourceGraphic" in2="BackgroundImageFix" result="shape"/>
<feGaussianBlur stdDeviation="13.5" result="effect1_foregroundBlur_488_7805"/>
</filter>
<filter id="filter1_b_488_7805" x="6.80273" y="5.3457" width="87.1973" height="91.6543" filterUnits="userSpaceOnUse" color-interpolation-filters="sRGB">
<feFlood flood-opacity="0" result="BackgroundImageFix"/>
<feGaussianBlur in="BackgroundImageFix" stdDeviation="12"/>
<feComposite in2="SourceAlpha" operator="in" result="effect1_backgroundBlur_488_7805"/>
<feBlend mode="normal" in="SourceGraphic" in2="effect1_backgroundBlur_488_7805" result="shape"/>
</filter>
<filter id="filter2_bd_488_7805" x="25.5029" y="25.0312" width="49.6108" height="52.2148" filterUnits="userSpaceOnUse" color-interpolation-filters="sRGB">
<feFlood flood-opacity="0" result="BackgroundImageFix"/>
<feGaussianBlur in="BackgroundImageFix" stdDeviation="7.5"/>
<feComposite in2="SourceAlpha" operator="in" result="effect1_backgroundBlur_488_7805"/>
<feColorMatrix in="SourceAlpha" type="matrix" values="0 0 0 0 0 0 0 0 0 0 0 0 0 0 0 0 0 0 127 0" result="hardAlpha"/>
<feOffset dx="5" dy="5"/>
<feGaussianBlur stdDeviation="5"/>
<feColorMatrix type="matrix" values="0 0 0 0 0.243137 0 0 0 0 0.627451 0 0 0 0 0.996078 0 0 0 0.35 0"/>
<feBlend mode="normal" in2="effect1_backgroundBlur_488_7805" result="effect2_dropShadow_488_7805"/>
<feBlend mode="normal" in="SourceGraphic" in2="effect2_dropShadow_488_7805" result="shape"/>
</filter>
<linearGradient id="paint0_linear_488_7805" x1="34.9648" y1="21.8517" x2="45.8187" y2="62.0441" gradientUnits="userSpaceOnUse">
<stop stop-color="#3EA0FE"/>
<stop offset="1" stop-color="#0062FF"/>
</linearGradient>
<linearGradient id="paint1_linear_488_7805" x1="37.7239" y1="35.1985" x2="64.7677" y2="65.109" gradientUnits="userSpaceOnUse">
<stop stop-color="white" stop-opacity="0.25"/>
<stop offset="1" stop-color="white" stop-opacity="0"/>
</linearGradient>
<linearGradient id="paint2_linear_488_7805" x1="58.7235" y1="44.0429" x2="36.8736" y2="44.6718" gradientUnits="userSpaceOnUse">
<stop stop-color="white"/>
<stop offset="1" stop-color="white" stop-opacity="0.2"/>
</linearGradient>
<linearGradient id="paint3_linear_488_7805" x1="43.6247" y1="42.6194" x2="58.0636" y2="58.4059" gradientUnits="userSpaceOnUse">
<stop stop-color="white" stop-opacity="0.25"/>
<stop offset="1" stop-color="white" stop-opacity="0"/>
</linearGradient>
</defs>
</svg>
