<svg width="76" height="73" viewBox="0 0 76 73" fill="none" xmlns="http://www.w3.org/2000/svg">
<path d="M20.0606 16.4129L37.713 11.694C44.1458 9.97432 48.8057 12.7797 50.5973 19.4507L55.5092 37.7395C57.3009 44.4105 54.6713 49.1645 48.2385 50.8842L30.586 55.6031C24.1532 57.3228 19.5102 54.5129 17.7185 47.8419L12.8066 29.5531C11.015 22.8821 13.6278 18.1326 20.0606 16.4129Z" fill="url(#paint0_linear_488_7795)"/>
<g filter="url(#filter0_f_488_7795)">
<path d="M25.0246 23.1655L37.0136 19.9605C41.3825 18.7926 44.4929 20.4951 45.6136 24.668L48.6861 36.108C49.8068 40.2809 47.9665 43.3069 43.5975 44.4748L31.6085 47.6798C27.2395 48.8478 24.1406 47.1422 23.0198 42.9693L19.9473 31.5293C18.8266 27.3564 20.6556 24.3334 25.0246 23.1655Z" fill="#0062FF" fill-opacity="0.5"/>
</g>
<g filter="url(#filter1_b_488_7795)">
<mask id="path-3-outside-1_488_7795" maskUnits="userSpaceOnUse" x="22.3901" y="19.4863" width="44" height="44" fill="black">
<rect fill="white" x="22.3901" y="19.4863" width="44" height="44"/>
<path d="M53.2245 20.4863H35.1866C28.1337 20.4863 23.3901 25.4264 23.3901 32.7742V49.7323C23.3901 57.0594 28.1337 61.9995 35.1866 61.9995H53.2245C60.2774 61.9995 65.0001 57.0594 65.0001 49.7323V32.7742C65.0001 25.4264 60.2774 20.4863 53.2245 20.4863Z"/>
</mask>
<path d="M53.2245 20.4863H35.1866C28.1337 20.4863 23.3901 25.4264 23.3901 32.7742V49.7323C23.3901 57.0594 28.1337 61.9995 35.1866 61.9995H53.2245C60.2774 61.9995 65.0001 57.0594 65.0001 49.7323V32.7742C65.0001 25.4264 60.2774 20.4863 53.2245 20.4863Z" fill="#3EA0FE" fill-opacity="0.35"/>
<path d="M53.2245 21.4863C53.7768 21.4863 54.2245 21.0386 54.2245 20.4863C54.2245 19.934 53.7768 19.4863 53.2245 19.4863V21.4863ZM53.2245 19.4863C52.6722 19.4863 52.2245 19.934 52.2245 20.4863C52.2245 21.0386 52.6722 21.4863 53.2245 21.4863V19.4863ZM53.2245 19.4863H35.1866V21.4863H53.2245V19.4863ZM35.1866 19.4863C31.4181 19.4863 28.1982 20.8116 25.9222 23.1823C23.6495 25.5495 22.3901 28.8829 22.3901 32.7742H24.3901C24.3901 29.3177 25.5025 26.5072 27.3649 24.5674C29.2238 22.6311 31.9022 21.4863 35.1866 21.4863V19.4863ZM22.3901 32.7742V49.7323H24.3901V32.7742H22.3901ZM22.3901 49.7323C22.3901 53.614 23.65 56.9423 25.9226 59.3066C28.1985 61.6743 31.4181 62.9995 35.1866 62.9995V60.9995C31.9021 60.9995 29.2235 59.8546 27.3645 57.9206C25.5021 55.9831 24.3901 53.1777 24.3901 49.7323H22.3901ZM35.1866 62.9995H53.2245V60.9995H35.1866V62.9995ZM53.2245 62.9995C56.9931 62.9995 60.2081 61.6741 62.479 59.3056C64.7463 56.9409 66.0001 53.6128 66.0001 49.7323H64.0001C64.0001 53.1789 62.8926 55.9844 61.0353 57.9215C59.1816 59.8548 56.5088 60.9995 53.2245 60.9995V62.9995ZM66.0001 49.7323V32.7742H64.0001V49.7323H66.0001ZM66.0001 32.7742C66.0001 28.8841 64.7467 25.5508 62.4794 23.1832C60.2084 20.8117 56.9932 19.4863 53.2245 19.4863V21.4863C56.5087 21.4863 59.1814 22.6309 61.0349 24.5665C62.8922 26.5059 64.0001 29.3165 64.0001 32.7742H66.0001Z" fill="url(#paint1_linear_488_7795)" mask="url(#path-3-outside-1_488_7795)"/>
</g>
<g filter="url(#filter2_bd_488_7795)">
<mask id="path-5-inside-2_488_7795" fill="white">
<path fill-rule="evenodd" clip-rule="evenodd" d="M31.7467 34.0326C31.7467 36.9051 34.0868 39.2429 36.9667 39.2429C39.8446 39.2429 42.1868 36.9051 42.1868 34.0326C42.1868 31.1601 39.8446 28.8223 36.9667 28.8223C34.0868 28.8223 31.7467 31.1601 31.7467 34.0326ZM60.2061 53.1543C60.9539 51.382 61.3173 49.2312 60.6178 47.4417C60.3846 46.8481 60.0359 46.2953 59.5465 45.8093C58.263 44.5381 57.0635 43.3509 55.6372 42.4734C53.3979 41.0796 51.6691 43.0369 51.2027 43.6628C50.8307 44.1629 50.5018 44.7058 50.1685 45.256C50.0991 45.3707 50.0294 45.4857 49.9591 45.6006L49.9425 45.6281C48.9507 47.267 47.8118 49.1491 45.8482 50.2464C42.9787 51.8315 40.8003 50.3711 39.2333 49.3086C38.6451 48.9129 38.0737 48.5386 37.5044 48.2891C36.1012 47.6848 34.8387 48.373 32.9649 50.7475C31.9818 51.9885 31.0071 53.2188 30.0198 54.4447C29.4296 55.1782 29.5703 56.3095 30.3664 56.7999C31.6373 57.5806 33.1876 58 34.9395 58H52.545C53.5386 58 54.5343 57.8645 55.4838 57.5548C57.6223 56.8579 59.3196 55.262 60.2061 53.1543Z"/>
</mask>
<path fill-rule="evenodd" clip-rule="evenodd" d="M31.7467 34.0326C31.7467 36.9051 34.0868 39.2429 36.9667 39.2429C39.8446 39.2429 42.1868 36.9051 42.1868 34.0326C42.1868 31.1601 39.8446 28.8223 36.9667 28.8223C34.0868 28.8223 31.7467 31.1601 31.7467 34.0326ZM60.2061 53.1543C60.9539 51.382 61.3173 49.2312 60.6178 47.4417C60.3846 46.8481 60.0359 46.2953 59.5465 45.8093C58.263 44.5381 57.0635 43.3509 55.6372 42.4734C53.3979 41.0796 51.6691 43.0369 51.2027 43.6628C50.8307 44.1629 50.5018 44.7058 50.1685 45.256C50.0991 45.3707 50.0294 45.4857 49.9591 45.6006L49.9425 45.6281C48.9507 47.267 47.8118 49.1491 45.8482 50.2464C42.9787 51.8315 40.8003 50.3711 39.2333 49.3086C38.6451 48.9129 38.0737 48.5386 37.5044 48.2891C36.1012 47.6848 34.8387 48.373 32.9649 50.7475C31.9818 51.9885 31.0071 53.2188 30.0198 54.4447C29.4296 55.1782 29.5703 56.3095 30.3664 56.7999C31.6373 57.5806 33.1876 58 34.9395 58H52.545C53.5386 58 54.5343 57.8645 55.4838 57.5548C57.6223 56.8579 59.3196 55.262 60.2061 53.1543Z" fill="url(#paint2_linear_488_7795)"/>
<path d="M60.6178 47.4417L60.8041 47.3689L60.8039 47.3686L60.6178 47.4417ZM60.2061 53.1543L60.0218 53.0765L60.0217 53.0767L60.2061 53.1543ZM59.5465 45.8093L59.6874 45.6674L59.6872 45.6672L59.5465 45.8093ZM55.6372 42.4734L55.5315 42.6432L55.5324 42.6437L55.6372 42.4734ZM51.2027 43.6628L51.0423 43.5433L51.0422 43.5434L51.2027 43.6628ZM50.1685 45.256L49.9975 45.1524H49.9975L50.1685 45.256ZM49.9591 45.6006L49.7885 45.4963L49.788 45.4971L49.9591 45.6006ZM49.9425 45.6281L50.1137 45.7316L50.1137 45.7316L49.9425 45.6281ZM45.8482 50.2464L45.9449 50.4214L45.9457 50.421L45.8482 50.2464ZM39.2333 49.3086L39.3455 49.1431L39.3449 49.1427L39.2333 49.3086ZM37.5044 48.2891L37.5847 48.106L37.5835 48.1055L37.5044 48.2891ZM32.9649 50.7475L33.1217 50.8717L33.1219 50.8714L32.9649 50.7475ZM30.0198 54.4447L29.8641 54.3193L29.864 54.3193L30.0198 54.4447ZM30.3664 56.7999L30.2616 56.9702L30.2618 56.9703L30.3664 56.7999ZM55.4838 57.5548L55.4219 57.3646L55.4218 57.3647L55.4838 57.5548ZM36.9667 39.0429C34.1969 39.0429 31.9467 36.7943 31.9467 34.0326H31.5467C31.5467 37.0158 33.9766 39.4429 36.9667 39.4429V39.0429ZM41.9868 34.0326C41.9868 36.7943 39.7345 39.0429 36.9667 39.0429V39.4429C39.9547 39.4429 42.3868 37.0159 42.3868 34.0326H41.9868ZM36.9667 29.0223C39.7345 29.0223 41.9868 31.2709 41.9868 34.0326H42.3868C42.3868 31.0493 39.9547 28.6223 36.9667 28.6223V29.0223ZM31.9467 34.0326C31.9467 31.2709 34.1969 29.0223 36.9667 29.0223V28.6223C33.9766 28.6223 31.5467 31.0493 31.5467 34.0326H31.9467ZM60.4315 47.5145C61.1041 49.2351 60.7598 51.3274 60.0218 53.0765L60.3903 53.232C61.1479 51.4366 61.5305 49.2273 60.8041 47.3689L60.4315 47.5145ZM59.4055 45.9512C59.8743 46.4167 60.2081 46.9457 60.4316 47.5148L60.8039 47.3686C60.5612 46.7505 60.1975 46.174 59.6874 45.6674L59.4055 45.9512ZM55.5324 42.6437C56.9357 43.5071 58.1191 44.6771 59.4057 45.9514L59.6872 45.6672C58.4069 44.3992 57.1913 43.1947 55.742 42.303L55.5324 42.6437ZM51.3631 43.7823C51.5888 43.4794 52.1155 42.8618 52.846 42.4888C53.5643 42.1221 54.4806 41.9891 55.5315 42.6432L55.7428 42.3036C54.5544 41.5639 53.4867 41.7126 52.6641 42.1326C51.8538 42.5463 51.283 43.2203 51.0423 43.5433L51.3631 43.7823ZM50.3396 45.3596C50.6738 44.8079 50.9978 44.2733 51.3632 43.7821L51.0422 43.5434C50.6636 44.0525 50.3299 44.6037 49.9975 45.1524L50.3396 45.3596ZM50.1298 45.7049C50.2003 45.5896 50.2702 45.4743 50.3396 45.3596L49.9975 45.1524C49.928 45.2671 49.8585 45.3818 49.7885 45.4963L50.1298 45.7049ZM50.1137 45.7316L50.1302 45.7042L49.788 45.4971L49.7714 45.5245L50.1137 45.7316ZM45.9457 50.421C47.9625 49.294 49.1259 47.3639 50.1137 45.7316L49.7714 45.5245C48.7756 47.1702 47.6611 49.0042 45.7506 50.0718L45.9457 50.421ZM39.121 49.4742C39.9015 50.0033 40.8638 50.6535 41.9997 50.9633C43.1463 51.276 44.4621 51.2405 45.9449 50.4214L45.7515 50.0713C44.3647 50.8374 43.1567 50.8642 42.1049 50.5774C41.0425 50.2877 40.1321 49.6764 39.3455 49.1431L39.121 49.4742ZM37.4241 48.4723C37.9746 48.7136 38.5318 49.0777 39.1216 49.4746L39.3449 49.1427C38.7583 48.748 38.1728 48.3637 37.5847 48.106L37.4241 48.4723ZM33.1219 50.8714C34.0551 49.6889 34.8185 48.9502 35.5065 48.5771C36.1787 48.2125 36.7808 48.1952 37.4253 48.4728L37.5835 48.1055C36.8248 47.7787 36.0941 47.8033 35.3158 48.2254C34.5533 48.639 33.7485 49.4317 32.8079 50.6236L33.1219 50.8714ZM30.1756 54.5702C31.1635 53.3435 32.1387 52.1126 33.1217 50.8717L32.8082 50.6233C31.825 51.8644 30.8508 53.0941 29.8641 54.3193L30.1756 54.5702ZM30.4713 56.6296C29.7884 56.2089 29.6527 55.2198 30.1756 54.5701L29.864 54.3193C29.2064 55.1365 29.3522 56.41 30.2616 56.9702L30.4713 56.6296ZM34.9395 57.8C33.2198 57.8 31.7067 57.3885 30.4711 56.6295L30.2618 56.9703C31.568 57.7727 33.1555 58.2 34.9395 58.2V57.8ZM52.545 57.8H34.9395V58.2H52.545V57.8ZM55.4218 57.3647C54.4951 57.667 53.5207 57.8 52.545 57.8V58.2C53.5566 58.2 54.5736 58.0621 55.5458 57.7449L55.4218 57.3647ZM60.0217 53.0767C59.1569 55.133 57.503 56.6865 55.4219 57.3646L55.5458 57.745C57.7415 57.0294 59.4823 55.3911 60.3904 53.2318L60.0217 53.0767Z" fill="url(#paint3_linear_488_7795)" fill-opacity="0.5" mask="url(#path-5-inside-2_488_7795)"/>
</g>
<defs>
<filter id="filter0_f_488_7795" x="0.625" y="0.601562" width="67.3823" height="66.4375" filterUnits="userSpaceOnUse" color-interpolation-filters="sRGB">
<feFlood flood-opacity="0" result="BackgroundImageFix"/>
<feBlend mode="normal" in="SourceGraphic" in2="BackgroundImageFix" result="shape"/>
<feGaussianBlur stdDeviation="9.5" result="effect1_foregroundBlur_488_7795"/>
</filter>
<filter id="filter1_b_488_7795" x="-1.60986" y="-4.51367" width="91.6099" height="91.5137" filterUnits="userSpaceOnUse" color-interpolation-filters="sRGB">
<feFlood flood-opacity="0" result="BackgroundImageFix"/>
<feGaussianBlur in="BackgroundImageFix" stdDeviation="12"/>
<feComposite in2="SourceAlpha" operator="in" result="effect1_backgroundBlur_488_7795"/>
<feBlend mode="normal" in="SourceGraphic" in2="effect1_backgroundBlur_488_7795" result="shape"/>
</filter>
<filter id="filter2_bd_488_7795" x="14.6572" y="13.8223" width="61.335" height="59.1777" filterUnits="userSpaceOnUse" color-interpolation-filters="sRGB">
<feFlood flood-opacity="0" result="BackgroundImageFix"/>
<feGaussianBlur in="BackgroundImageFix" stdDeviation="7.5"/>
<feComposite in2="SourceAlpha" operator="in" result="effect1_backgroundBlur_488_7795"/>
<feColorMatrix in="SourceAlpha" type="matrix" values="0 0 0 0 0 0 0 0 0 0 0 0 0 0 0 0 0 0 127 0" result="hardAlpha"/>
<feOffset dx="5" dy="5"/>
<feGaussianBlur stdDeviation="5"/>
<feColorMatrix type="matrix" values="0 0 0 0 0.15375 0 0 0 0 0.522433 0 0 0 0 0.9 0 0 0 0.5 0"/>
<feBlend mode="normal" in2="effect1_backgroundBlur_488_7795" result="effect2_dropShadow_488_7795"/>
<feBlend mode="normal" in="SourceGraphic" in2="effect2_dropShadow_488_7795" result="shape"/>
</filter>
<linearGradient id="paint0_linear_488_7795" x1="12.7029" y1="18.3798" x2="60.5145" y2="34.4992" gradientUnits="userSpaceOnUse">
<stop stop-color="#39AFFD"/>
<stop offset="1" stop-color="#3A76FF"/>
</linearGradient>
<linearGradient id="paint1_linear_488_7795" x1="30.0138" y1="25.3227" x2="56.4817" y2="58.1803" gradientUnits="userSpaceOnUse">
<stop stop-color="white" stop-opacity="0.25"/>
<stop offset="1" stop-color="white" stop-opacity="0.06"/>
</linearGradient>
<linearGradient id="paint2_linear_488_7795" x1="58.7705" y1="34.0912" x2="23.8721" y2="35.3131" gradientUnits="userSpaceOnUse">
<stop stop-color="white"/>
<stop offset="1" stop-color="white" stop-opacity="0.2"/>
</linearGradient>
<linearGradient id="paint3_linear_488_7795" x1="33.0327" y1="38.61" x2="59.6402" y2="38.7677" gradientUnits="userSpaceOnUse">
<stop stop-color="white"/>
<stop offset="1" stop-color="white" stop-opacity="0"/>
</linearGradient>
</defs>
</svg>
