<svg width="14" height="14" viewBox="0 0 14 14" fill="none" xmlns="http://www.w3.org/2000/svg">
<path d="M2.48912 12.7027L2.71611 12.2572L2.48912 12.7027ZM1.29725 11.5109L1.74276 11.2839L1.29725 11.5109ZM10.5209 11.5109L10.0754 11.2839L10.5209 11.5109ZM9.32907 12.7027L9.10207 12.2572L9.32907 12.7027ZM9.32907 3.47907L9.10207 3.92458L9.32907 3.47907ZM10.5209 4.67093L10.0754 4.89793L10.5209 4.67093ZM2.48912 3.47907L2.71611 3.92458L2.48912 3.47907ZM1.29725 4.67093L1.74276 4.89793L1.29725 4.67093ZM10.8182 10.3182C10.542 10.3182 10.3182 10.542 10.3182 10.8182C10.3182 11.0943 10.542 11.3182 10.8182 11.3182V10.3182ZM2.68182 3.18182C2.68182 3.45796 2.90568 3.68182 3.18182 3.68182C3.45796 3.68182 3.68182 3.45796 3.68182 3.18182H2.68182ZM3.38152 9.36608C3.18204 9.55704 3.17513 9.87354 3.36608 10.073C3.55704 10.2725 3.87354 10.2794 4.07302 10.0885L3.38152 9.36608ZM7.74516 10.0885C7.94464 10.2794 8.26115 10.2725 8.4521 10.073C8.64305 9.87354 8.63614 9.55704 8.43666 9.36608L7.74516 10.0885ZM5.36364 3.68182H6.45455V2.68182H5.36364V3.68182ZM10.3182 7.54545V8.63636H11.3182V7.54545H10.3182ZM6.45455 12.5H5.36364V13.5H6.45455V12.5ZM1.5 8.63636V7.54545H0.5V8.63636H1.5ZM5.36364 12.5C4.59168 12.5 4.04278 12.4996 3.61309 12.4645C3.18923 12.4299 2.92558 12.364 2.71611 12.2572L2.26212 13.1482C2.63605 13.3388 3.04595 13.4215 3.53165 13.4612C4.01151 13.5004 4.60818 13.5 5.36364 13.5V12.5ZM0.5 8.63636C0.5 9.39182 0.499611 9.98849 0.538817 10.4683C0.578501 10.954 0.661224 11.3639 0.851752 11.7379L1.74276 11.2839C1.63603 11.0744 1.57013 10.8108 1.5355 10.3869C1.50039 9.95722 1.5 9.40832 1.5 8.63636H0.5ZM2.71611 12.2572C2.29702 12.0437 1.95629 11.703 1.74276 11.2839L0.851752 11.7379C1.16116 12.3451 1.65487 12.8388 2.26212 13.1482L2.71611 12.2572ZM10.3182 8.63636C10.3182 9.40832 10.3178 9.95722 10.2827 10.3869C10.2481 10.8108 10.1822 11.0744 10.0754 11.2839L10.9664 11.7379C11.157 11.3639 11.2397 10.954 11.2794 10.4683C11.3186 9.98849 11.3182 9.39182 11.3182 8.63636H10.3182ZM6.45455 13.5C7.21 13.5 7.80667 13.5004 8.28653 13.4612C8.77223 13.4215 9.18213 13.3388 9.55606 13.1482L9.10207 12.2572C8.89261 12.364 8.62896 12.4299 8.2051 12.4645C7.7754 12.4996 7.2265 12.5 6.45455 12.5V13.5ZM10.0754 11.2839C9.86189 11.703 9.52116 12.0437 9.10207 12.2572L9.55606 13.1482C10.1633 12.8388 10.657 12.3451 10.9664 11.7379L10.0754 11.2839ZM6.45455 3.68182C7.2265 3.68182 7.7754 3.68221 8.2051 3.71731C8.62895 3.75195 8.89261 3.81785 9.10207 3.92458L9.55606 3.03357C9.18213 2.84304 8.77223 2.76032 8.28653 2.72064C7.80667 2.68143 7.21 2.68182 6.45455 2.68182V3.68182ZM11.3182 7.54545C11.3182 6.79 11.3186 6.19333 11.2794 5.71347C11.2397 5.22777 11.157 4.81787 10.9664 4.44394L10.0754 4.89793C10.1822 5.10739 10.2481 5.37105 10.2827 5.7949C10.3178 6.2246 10.3182 6.7735 10.3182 7.54545H11.3182ZM9.10207 3.92458C9.52116 4.13811 9.86189 4.47884 10.0754 4.89793L10.9664 4.44394C10.657 3.83669 10.1633 3.34298 9.55606 3.03357L9.10207 3.92458ZM5.36364 2.68182C4.60818 2.68182 4.01151 2.68143 3.53165 2.72064C3.04595 2.76032 2.63605 2.84304 2.26212 3.03357L2.71611 3.92458C2.92558 3.81785 3.18923 3.75195 3.61309 3.71731C4.04278 3.68221 4.59168 3.68182 5.36364 3.68182V2.68182ZM1.5 7.54545C1.5 6.7735 1.50039 6.2246 1.5355 5.7949C1.57013 5.37105 1.63603 5.10739 1.74276 4.89793L0.851752 4.44394C0.661224 4.81787 0.578501 5.22777 0.538817 5.71347C0.499611 6.19333 0.5 6.79 0.5 7.54545H1.5ZM2.26212 3.03357C1.65487 3.34298 1.16116 3.83669 0.851752 4.44394L1.74276 4.89793C1.95629 4.47884 2.29702 4.13811 2.71611 3.92458L2.26212 3.03357ZM5.36364 1.5H10.2727V0.5H5.36364V1.5ZM12.5 3.72727V8.63636H13.5V3.72727H12.5ZM12.5 8.63636C12.5 9.56521 11.747 10.3182 10.8182 10.3182V11.3182C12.2993 11.3182 13.5 10.1175 13.5 8.63636H12.5ZM10.2727 1.5C11.5028 1.5 12.5 2.49718 12.5 3.72727H13.5C13.5 1.9449 12.0551 0.5 10.2727 0.5V1.5ZM5.36364 0.5C3.88251 0.5 2.68182 1.70069 2.68182 3.18182H3.68182C3.68182 2.25298 4.43479 1.5 5.36364 1.5V0.5ZM4.07302 10.0885C5.08466 9.12007 6.73352 9.12007 7.74516 10.0885L8.43666 9.36608C7.03833 8.02752 4.77985 8.02753 3.38152 9.36608L4.07302 10.0885ZM6.87254 7.29285C6.87254 7.76058 6.47001 8.17661 5.92699 8.17661V9.17661C6.98068 9.17661 7.87254 8.35358 7.87254 7.29285H6.87254ZM5.92699 8.17661C5.38397 8.17661 4.98144 7.76058 4.98144 7.29285H3.98144C3.98144 8.35358 4.8733 9.17661 5.92699 9.17661V8.17661ZM4.98144 7.29285C4.98144 6.82512 5.38397 6.40909 5.92699 6.40909V5.40909C4.8733 5.40909 3.98144 6.23212 3.98144 7.29285H4.98144ZM5.92699 6.40909C6.47001 6.40909 6.87254 6.82512 6.87254 7.29285H7.87254C7.87254 6.23212 6.98068 5.40909 5.92699 5.40909V6.40909Z" fill="#3248F6"/>
</svg>
