<svg width="14" height="11" viewBox="0 0 14 11" fill="none" xmlns="http://www.w3.org/2000/svg">
<path d="M7 7.6V3.4M7 7.6C6.33726 7.6 5.8 8.13726 5.8 8.8C5.8 9.46274 6.33726 10 7 10C7.66274 10 8.2 9.46274 8.2 8.8C8.2 8.13726 7.66274 7.6 7 7.6ZM2.2 7.6V7C2.2 6.33726 2.73726 5.8 3.4 5.8H10.6C11.2627 5.8 11.8 6.33726 11.8 7V7.6M2.2 7.6C1.53726 7.6 1 8.13726 1 8.8C1 9.46274 1.53726 10 2.2 10C2.86274 10 3.4 9.46274 3.4 8.8C3.4 8.13726 2.86274 7.6 2.2 7.6ZM11.8 7.6C11.1373 7.6 10.6 8.13726 10.6 8.8C10.6 9.46274 11.1373 10 11.8 10C12.4627 10 13 9.46274 13 8.8C13 8.13726 12.4627 7.6 11.8 7.6ZM2.8 3.4H11.2C11.8627 3.4 12.4 2.86274 12.4 2.2C12.4 1.53726 11.8627 1 11.2 1H2.8C2.13726 1 1.6 1.53726 1.6 2.2C1.6 2.86274 2.13726 3.4 2.8 3.4Z" stroke="#3248F6" stroke-linecap="round"/>
</svg>
