<svg width="14" height="14" viewBox="0 0 14 14" fill="none" xmlns="http://www.w3.org/2000/svg">
<path d="M2.48877 12.7033L2.26177 13.1488L2.26177 13.1488L2.48877 12.7033ZM1.29682 11.5113L1.74232 11.2843L1.74232 11.2843L1.29682 11.5113ZM12.7032 11.5113L12.2577 11.2843L12.2577 11.2843L12.7032 11.5113ZM11.5112 12.7033L11.2842 12.2578L11.2842 12.2578L11.5112 12.7033ZM11.5112 1.29668L11.2842 1.74218L11.2842 1.74218L11.5112 1.29668ZM12.7032 2.48866L13.1487 2.26167L13.1487 2.26167L12.7032 2.48866ZM2.48877 1.29668L2.71577 1.74218L2.71577 1.74218L2.48877 1.29668ZM1.29682 2.48866L0.85131 2.26167L1.29682 2.48866ZM4.81979 1.5C5.09593 1.49901 5.31899 1.27436 5.31801 0.99822C5.31703 0.72208 5.09237 0.49902 4.81623 0.500003L4.81979 1.5ZM9.18377 0.500003C8.90763 0.49902 8.68297 0.72208 8.68199 0.99822C8.68101 1.27436 8.90407 1.49901 9.18021 1.5L9.18377 0.500003ZM1.5 9.13622C1.49919 8.86008 1.27467 8.63688 0.998531 8.63769C0.72239 8.6385 0.499191 8.86302 0.500002 9.13916L1.5 9.13622ZM13.5 9.13916C13.5008 8.86302 13.2776 8.6385 13.0015 8.63769C12.7253 8.63688 12.5008 8.86008 12.5 9.13622L13.5 9.13916ZM12.4999 4.81974C12.5008 5.09588 12.7255 5.31894 13.0016 5.31796C13.2778 5.31698 13.5008 5.09232 13.4999 4.81618L12.4999 4.81974ZM4.81623 13.5C5.09237 13.501 5.31703 13.2779 5.31801 13.0018C5.31899 12.7256 5.09593 12.501 4.81979 12.5L4.81623 13.5ZM9.18028 12.5C8.90414 12.501 8.68108 12.7256 8.68206 13.0018C8.68304 13.2779 8.9077 13.501 9.18384 13.5L9.18028 12.5ZM0.500147 4.81618C0.499164 5.09232 0.722224 5.31698 0.998364 5.31796C1.2745 5.31894 1.49916 5.09588 1.50014 4.81974L0.500147 4.81618ZM7.5 4.81796C7.5 4.54182 7.27614 4.31796 7 4.31796C6.72386 4.31796 6.5 4.54182 6.5 4.81796H7.5ZM5.90901 7.59102C5.63286 7.59102 5.40901 7.81488 5.40901 8.09102C5.40901 8.36716 5.63286 8.59102 5.90901 8.59102V7.59102ZM4.77252 4.27245C4.77252 3.99631 4.54866 3.77245 4.27252 3.77245C3.99638 3.77245 3.77252 3.99631 3.77252 4.27245H4.77252ZM3.77252 5.36347C3.77252 5.63961 3.99638 5.86347 4.27252 5.86347C4.54866 5.86347 4.77252 5.63961 4.77252 5.36347H3.77252ZM10.2275 4.27245C10.2275 3.99631 10.0036 3.77245 9.72748 3.77245C9.45134 3.77245 9.22748 3.99631 9.22748 4.27245H10.2275ZM9.22748 5.36347C9.22748 5.63961 9.45134 5.86347 9.72748 5.86347C10.0036 5.86347 10.2275 5.63961 10.2275 5.36347H9.22748ZM4.62678 9.37471C4.43191 9.17905 4.11533 9.17842 3.91967 9.37329C3.72402 9.56816 3.72339 9.88474 3.91825 10.0804L4.62678 9.37471ZM10.0817 10.0804C10.2766 9.88474 10.276 9.56816 10.0803 9.37329C9.88467 9.17842 9.56809 9.17905 9.37322 9.37471L10.0817 10.0804ZM2.71577 12.2578C2.29664 12.0443 1.95588 11.7035 1.74232 11.2843L0.85131 11.7383C1.16074 12.3456 1.65448 12.8394 2.26177 13.1488L2.71577 12.2578ZM12.2577 11.2843C12.0441 11.7035 11.7034 12.0443 11.2842 12.2578L11.7382 13.1488C12.3455 12.8394 12.8393 12.3456 13.1487 11.7383L12.2577 11.2843ZM11.2842 1.74218C11.7034 1.95574 12.0441 2.29651 12.2577 2.71565L13.1487 2.26167C12.8393 1.65437 12.3455 1.16062 11.7382 0.851178L11.2842 1.74218ZM2.26177 0.851178C1.65448 1.16062 1.16074 1.65437 0.85131 2.26167L1.74232 2.71565C1.95588 2.29651 2.29664 1.95574 2.71577 1.74218L2.26177 0.851178ZM4.81623 0.500003C3.67516 0.504065 2.89772 0.527139 2.26177 0.851178L2.71577 1.74218C3.09872 1.54705 3.61516 1.50428 4.81979 1.5L4.81623 0.500003ZM9.18021 1.5C10.3848 1.50428 10.9013 1.54705 11.2842 1.74218L11.7382 0.851178C11.1023 0.527139 10.3248 0.504065 9.18377 0.500003L9.18021 1.5ZM0.500002 9.13916C0.503431 10.306 0.523625 11.0952 0.85131 11.7383L1.74232 11.2843C1.54434 10.8958 1.50363 10.3714 1.5 9.13622L0.500002 9.13916ZM12.5 9.13622C12.4964 10.3714 12.4557 10.8958 12.2577 11.2843L13.1487 11.7383C13.4764 11.0952 13.4966 10.306 13.5 9.13916L12.5 9.13622ZM13.4999 4.81618C13.4958 3.67508 13.4727 2.89762 13.1487 2.26167L12.2577 2.71565C12.4528 3.09862 12.4956 3.61508 12.4999 4.81974L13.4999 4.81618ZM4.81979 12.5C3.61516 12.4957 3.09872 12.4529 2.71577 12.2578L2.26177 13.1488C2.89772 13.4729 3.67516 13.4959 4.81623 13.5L4.81979 12.5ZM9.18384 13.5C10.3249 13.4959 11.1023 13.4729 11.7382 13.1488L11.2842 12.2578C10.9013 12.4529 10.3849 12.4957 9.18028 12.5L9.18384 13.5ZM1.50014 4.81974C1.50443 3.61508 1.54719 3.09862 1.74232 2.71565L0.85131 2.26167C0.527283 2.89762 0.504209 3.67508 0.500147 4.81618L1.50014 4.81974ZM6.5 4.81796V7H7.5V4.81796H6.5ZM6.5 7C6.5 7.32642 6.23539 7.59102 5.90901 7.59102V8.59102C6.7877 8.59102 7.5 7.87868 7.5 7H6.5ZM3.77252 4.27245V5.36347H4.77252V4.27245H3.77252ZM9.22748 4.27245V5.36347H10.2275V4.27245H9.22748ZM7 10.3186C6.0426 10.3186 5.1964 9.94662 4.62678 9.37471L3.91825 10.0804C4.68136 10.8466 5.78507 11.3186 7 11.3186V10.3186ZM9.37322 9.37471C8.8036 9.94662 7.9574 10.3186 7 10.3186V11.3186C8.21494 11.3186 9.31864 10.8466 10.0817 10.0804L9.37322 9.37471Z" fill="#3248F6"/>
</svg>
