<svg width="14" height="14" viewBox="0 0 14 14" fill="none" xmlns="http://www.w3.org/2000/svg">
<path d="M9 7L6.56904 9.43096C6.43886 9.56114 6.22781 9.56114 6.09763 9.43096L5 8.33333M1 5H13M5 2.33333H3.13333C2.3866 2.33333 2.01323 2.33333 1.72801 2.47866C1.47713 2.60649 1.27316 2.81046 1.14532 3.06135C1 3.34656 1 3.71993 1 4.46667V10.8667C1 11.6134 1 11.9868 1.14532 12.272C1.27316 12.5229 1.47713 12.7268 1.72801 12.8547C2.01323 13 2.3866 13 3.13333 13H10.8667C11.6134 13 11.9868 13 12.272 12.8547C12.5229 12.7268 12.7268 12.5229 12.8547 12.272C13 11.9868 13 11.6134 13 10.8667V4.46667C13 3.71993 13 3.34656 12.8547 3.06135C12.7268 2.81046 12.5229 2.60649 12.272 2.47866C11.9868 2.33333 11.6134 2.33333 10.8667 2.33333H9M5 2.33333H9M5 2.33333V2C5 1.44772 4.55228 1 4 1C3.44772 1 3 1.44772 3 2V2.33333M9 2.33333V2C9 1.44772 9.44772 1 10 1C10.5523 1 11 1.44772 11 2V2.33333" stroke="#3248F6" stroke-linecap="round"/>
</svg>
