<svg width="14" height="15" viewBox="0 0 14 15" fill="none" xmlns="http://www.w3.org/2000/svg">
<path d="M3.94346 9.57572L3.58323 9.22898L3.94346 9.57572ZM10.0566 9.57572L9.69639 9.92247L10.0566 9.57572ZM7.76978 13.7151L8.01972 14.1482L8.01972 14.1482L7.76978 13.7151ZM7.51763 13.8607L7.26769 13.4276L7.26769 13.4276L7.51763 13.8607ZM6.48237 13.8607L6.73231 13.4276L6.73231 13.4276L6.48237 13.8607ZM6.23022 13.7151L5.98028 14.1482L5.98028 14.1482L6.23022 13.7151ZM4.30369 9.92247C5.79511 8.37304 8.20497 8.37304 9.69639 9.92247L10.4169 9.22898C8.53206 7.27087 5.46802 7.27087 3.58323 9.22898L4.30369 9.92247ZM9.69639 9.92247C9.9889 10.2264 10.2243 10.567 10.4029 10.9304L11.3004 10.4895C11.0773 10.0354 10.7828 9.60912 10.4169 9.22898L9.69639 9.92247ZM3.59721 10.9304C3.77575 10.567 4.01118 10.2264 4.30369 9.92247L3.58323 9.22898C3.21732 9.60912 2.92274 10.0354 2.69967 10.4895L3.59721 10.9304ZM8.55023 5.8743C8.55023 6.77826 7.8496 7.47819 7.02512 7.47819V8.47819C8.43751 8.47819 9.55023 7.29423 9.55023 5.8743H8.55023ZM7.02512 7.47819C6.20063 7.47819 5.5 6.77826 5.5 5.8743H4.5C4.5 7.29423 5.61272 8.47819 7.02512 8.47819V7.47819ZM5.5 5.8743C5.5 4.97033 6.20063 4.2704 7.02512 4.2704V3.2704C5.61272 3.2704 4.5 4.45436 4.5 5.8743H5.5ZM7.02512 4.2704C7.8496 4.2704 8.55023 4.97033 8.55023 5.8743H9.55023C9.55023 4.45436 8.43751 3.2704 7.02512 3.2704V4.2704ZM4.05556 1.5H9.94444V0.5H4.05556V1.5ZM12.2778 3.9241H12.5556V2.9241H12.2778V3.9241ZM12.5 3.88584V4.4805H13.5V3.88584H12.5ZM7.51984 13.2821L7.26769 13.4276L7.76757 14.2937L8.01972 14.1482L7.51984 13.2821ZM6.73231 13.4276L6.48016 13.2821L5.98028 14.1482L6.23243 14.2937L6.73231 13.4276ZM1.5 4.4805V3.88584H0.5V4.4805H1.5ZM1.44444 3.9241H1.72222V2.9241H1.44444V3.9241ZM1.72222 3.9241C3.09007 3.9241 4.16667 2.77766 4.16667 1.40402H3.16667C3.16667 2.26169 2.50215 2.9241 1.72222 2.9241V3.9241ZM1.5 3.88584C1.5 3.89012 1.49791 3.89829 1.49041 3.90609C1.48258 3.91422 1.46605 3.9241 1.44444 3.9241V2.9241C0.905028 2.9241 0.5 3.37284 0.5 3.88584H1.5ZM6.48016 13.2821C3.41229 11.5114 1.5 8.14482 1.5 4.4805H0.5C0.5 8.4892 2.59189 12.1925 5.98028 14.1482L6.48016 13.2821ZM7.26769 13.4276C7.10045 13.5241 6.89956 13.5241 6.73231 13.4276L6.23243 14.2937C6.70901 14.5688 7.29099 14.5688 7.76757 14.2937L7.26769 13.4276ZM12.5 4.4805C12.5 8.14482 10.5877 11.5114 7.51984 13.2821L8.01972 14.1482C11.4081 12.1925 13.5 8.4892 13.5 4.4805H12.5ZM12.5556 3.9241C12.534 3.9241 12.5174 3.91422 12.5096 3.90609C12.5021 3.89829 12.5 3.89012 12.5 3.88584H13.5C13.5 3.37284 13.095 2.9241 12.5556 2.9241V3.9241ZM9.83333 1.40402C9.83333 2.77766 10.9099 3.9241 12.2778 3.9241V2.9241C11.4978 2.9241 10.8333 2.26169 10.8333 1.40402H9.83333ZM9.94444 1.5C9.86527 1.5 9.83333 1.43887 9.83333 1.40402H10.8333C10.8333 0.922899 10.4532 0.5 9.94444 0.5V1.5ZM4.05556 0.5C3.54682 0.5 3.16667 0.922898 3.16667 1.40402H4.16667C4.16667 1.43887 4.13473 1.5 4.05556 1.5V0.5Z" fill="#3248F6"/>
</svg>
