<svg width="14" height="14" viewBox="0 0 14 14" fill="none" xmlns="http://www.w3.org/2000/svg">
<path d="M2.48912 12.7027L2.71611 12.2572H2.71611L2.48912 12.7027ZM1.29725 11.5109L1.74276 11.2839H1.74276L1.29725 11.5109ZM11.5109 1.29725L11.2839 1.74276V1.74276L11.5109 1.29725ZM12.7027 2.48912L12.2572 2.71611V2.71611L12.7027 2.48912ZM2.48912 1.29725L2.71611 1.74276H2.71611L2.48912 1.29725ZM1.29725 2.48912L1.74276 2.71611L1.29725 2.48912ZM12.5 7C12.5 7.27614 12.7239 7.5 13 7.5C13.2761 7.5 13.5 7.27614 13.5 7H12.5ZM7 13.5C7.27614 13.5 7.5 13.2761 7.5 13C7.5 12.7239 7.27614 12.5 7 12.5V13.5ZM1 4.31818C0.723858 4.31818 0.5 4.54204 0.5 4.81818C0.5 5.09432 0.723858 5.31818 1 5.31818V4.31818ZM13 5.31818C13.2761 5.31818 13.5 5.09432 13.5 4.81818C13.5 4.54204 13.2761 4.31818 13 4.31818V5.31818ZM3.68182 3.18182C3.68182 2.90568 3.45796 2.68182 3.18182 2.68182C2.90568 2.68182 2.68182 2.90568 2.68182 3.18182H3.68182ZM5.31818 3.18182C5.31818 2.90568 5.09432 2.68182 4.81818 2.68182C4.54204 2.68182 4.31818 2.90568 4.31818 3.18182H5.31818ZM6.95455 3.18182C6.95455 2.90568 6.73069 2.68182 6.45455 2.68182C6.1784 2.68182 5.95455 2.90568 5.95455 3.18182H6.95455ZM8.82125 9.05157L8.35527 9.23283L8.82125 9.05157ZM10.3119 12.8836L10.7779 12.7023L10.3119 12.8836ZM12.8932 10.5663L12.6856 11.0212L12.8932 10.5663ZM9.06967 8.82147L8.8621 9.27634L9.06967 8.82147ZM10.6576 12.8758L11.1314 13.0355V13.0355L10.6576 12.8758ZM11.1955 11.2804L10.7217 11.1206V11.1206L11.1955 11.2804ZM11.3395 11.1587L11.4208 11.652L11.3395 11.1587ZM12.8464 10.9103L12.7651 10.417L12.8464 10.9103ZM7.19374 7.90101C7.39011 8.09516 7.70669 8.09337 7.90084 7.897C8.09499 7.70064 8.0932 7.38406 7.89683 7.18991L7.19374 7.90101ZM7.16208 6.46343C6.96571 6.26928 6.64914 6.27107 6.45498 6.46744C6.26083 6.6638 6.26262 6.98038 6.45899 7.17453L7.16208 6.46343ZM8.68165 6.99881C8.68165 7.27495 8.90551 7.49881 9.18165 7.49881C9.4578 7.49881 9.68165 7.27495 9.68165 6.99881H8.68165ZM9.68165 6.45455C9.68165 6.17841 9.4578 5.95455 9.18165 5.95455C8.90551 5.95455 8.68165 6.17841 8.68165 6.45455H9.68165ZM7.01106 9.68181C7.2872 9.68181 7.51106 9.45795 7.51106 9.18181C7.51106 8.90567 7.2872 8.68181 7.01106 8.68181V9.68181ZM5.90893 8.68181C5.63278 8.68181 5.40893 8.90567 5.40893 9.18181C5.40893 9.45795 5.63278 9.68181 5.90893 9.68181V8.68181ZM2.68182 3.18727C2.68182 3.46342 2.90568 3.68727 3.18182 3.68727C3.45796 3.68727 3.68182 3.46342 3.68182 3.18727H2.68182ZM4.31818 3.18727C4.31818 3.46342 4.54204 3.68727 4.81818 3.68727C5.09432 3.68727 5.31818 3.46342 5.31818 3.18727H4.31818ZM5.95455 3.18727C5.95455 3.46342 6.1784 3.68727 6.45455 3.68727C6.73069 3.68727 6.95455 3.46342 6.95455 3.18727H5.95455ZM5.36364 1.5H8.63636V0.5H5.36364V1.5ZM1.5 8.63636V5.36364H0.5V8.63636H1.5ZM5.36364 12.5C4.59168 12.5 4.04278 12.4996 3.61309 12.4645C3.18923 12.4299 2.92558 12.364 2.71611 12.2572L2.26212 13.1482C2.63605 13.3388 3.04595 13.4215 3.53165 13.4612C4.01152 13.5004 4.60818 13.5 5.36364 13.5V12.5ZM0.5 8.63636C0.5 9.39182 0.499611 9.98849 0.538817 10.4683C0.578501 10.954 0.661224 11.3639 0.851752 11.7379L1.74276 11.2839C1.63603 11.0744 1.57013 10.8108 1.5355 10.3869C1.50039 9.95722 1.5 9.40832 1.5 8.63636H0.5ZM2.71611 12.2572C2.29702 12.0437 1.95629 11.703 1.74276 11.2839L0.851752 11.7379C1.16116 12.3451 1.65487 12.8388 2.26212 13.1482L2.71611 12.2572ZM8.63636 1.5C9.40832 1.5 9.95722 1.50039 10.3869 1.5355C10.8108 1.57013 11.0744 1.63603 11.2839 1.74276L11.7379 0.851752C11.3639 0.661224 10.954 0.578501 10.4683 0.538817C9.98849 0.499611 9.39182 0.5 8.63636 0.5V1.5ZM13.5 5.36364C13.5 4.60818 13.5004 4.01152 13.4612 3.53165C13.4215 3.04595 13.3388 2.63605 13.1482 2.26212L12.2572 2.71611C12.364 2.92558 12.4299 3.18923 12.4645 3.61309C12.4996 4.04278 12.5 4.59168 12.5 5.36364H13.5ZM11.2839 1.74276C11.703 1.95629 12.0437 2.29702 12.2572 2.71611L13.1482 2.26212C12.8388 1.65487 12.3451 1.16116 11.7379 0.851752L11.2839 1.74276ZM5.36364 0.5C4.60818 0.5 4.01152 0.499611 3.53165 0.538817C3.04595 0.578501 2.63605 0.661224 2.26212 0.851752L2.71611 1.74276C2.92558 1.63603 3.18923 1.57013 3.61309 1.5355C4.04278 1.50039 4.59168 1.5 5.36364 1.5V0.5ZM1.5 5.36364C1.5 4.59168 1.50039 4.04278 1.5355 3.61309C1.57013 3.18923 1.63603 2.92558 1.74276 2.71611L0.851752 2.26212C0.661224 2.63605 0.578501 3.04595 0.538817 3.53165C0.499611 4.01152 0.5 4.60818 0.5 5.36364H1.5ZM2.26212 0.851752C1.65487 1.16116 1.16116 1.65487 0.851752 2.26212L1.74276 2.71611C1.95629 2.29702 2.29702 1.95629 2.71611 1.74276L2.26212 0.851752ZM12.5 5.36364V7H13.5V5.36364H12.5ZM7 12.5H5.36364V13.5H7V12.5ZM1 5.31818H13V4.31818H1V5.31818ZM8.35527 9.23283L9.84591 13.0648L10.7779 12.7023L9.28724 8.8703L8.35527 9.23283ZM13.1008 10.1114L9.27725 8.36659L8.8621 9.27634L12.6856 11.0212L13.1008 10.1114ZM11.1314 13.0355L11.6693 11.4401L10.7217 11.1206L10.1838 12.7161L11.1314 13.0355ZM11.4208 11.652L12.9277 11.4037L12.7651 10.417L11.2582 10.6653L11.4208 11.652ZM11.6693 11.4401C11.631 11.5537 11.5339 11.6334 11.4208 11.652L11.2582 10.6653C11.011 10.7061 10.803 10.8794 10.7217 11.1206L11.6693 11.4401ZM12.6856 11.0212C12.3949 10.8885 12.4625 10.4669 12.7651 10.417L12.9277 11.4037C13.5872 11.295 13.7199 10.394 13.1008 10.1114L12.6856 11.0212ZM9.84591 13.0648C10.0769 13.6586 10.9273 13.6408 11.1314 13.0355L10.1838 12.7161C10.2789 12.4341 10.6707 12.4267 10.7779 12.7023L9.84591 13.0648ZM9.28724 8.8703C9.39695 9.15234 9.10496 9.38717 8.8621 9.27634L9.27725 8.36659C8.73493 8.11911 8.12716 8.64643 8.35527 9.23283L9.28724 8.8703ZM7.89683 7.18991L7.16208 6.46343L6.45899 7.17453L7.19374 7.90101L7.89683 7.18991ZM9.68165 6.99881V6.45455H8.68165V6.99881H9.68165ZM7.01106 8.68181H5.90893V9.68181H7.01106V8.68181ZM2.68182 3.18182V3.18727H3.68182V3.18182H2.68182ZM4.31818 3.18182V3.18727H5.31818V3.18182H4.31818ZM5.95455 3.18182V3.18727H6.95455V3.18182H5.95455Z" fill="#3248F6"/>
</svg>
