<svg width="22" height="18" viewBox="0 0 22 18" fill="none" xmlns="http://www.w3.org/2000/svg">
<g filter="url(#filter0_d_2370_2000)">
<path d="M12.2 3.5H14.6M12.2 6H14.6M12.2 8.5H14.6M6.92 11H15.08C15.7521 11 16.0881 11 16.3448 10.8638C16.5706 10.7439 16.7542 10.5527 16.8692 10.3175C17 10.0501 17 9.70007 17 9V3C17 2.29993 17 1.9499 16.8692 1.68251C16.7542 1.44731 16.5706 1.25608 16.3448 1.13624C16.0881 1 15.7521 1 15.08 1H6.92C6.24794 1 5.91191 1 5.65521 1.13624C5.42942 1.25608 5.24584 1.44731 5.13079 1.68251C5 1.9499 5 2.29993 5 3V9C5 9.70007 5 10.0501 5.13079 10.3175C5.24584 10.5527 5.42942 10.7439 5.65521 10.8638C5.91191 11 6.24794 11 6.92 11ZM7.7 6H9.5C9.66569 6 9.8 5.86009 9.8 5.6875V3.8125C9.8 3.63991 9.66569 3.5 9.5 3.5H7.7C7.53431 3.5 7.4 3.63991 7.4 3.8125V5.6875C7.4 5.86009 7.53431 6 7.7 6Z" stroke="#3248F6" stroke-linecap="round" shape-rendering="crispEdges"/>
</g>
<defs>
<filter id="filter0_d_2370_2000" x="0.5" y="0.5" width="21" height="19" filterUnits="userSpaceOnUse" color-interpolation-filters="sRGB">
<feFlood flood-opacity="0" result="BackgroundImageFix"/>
<feColorMatrix in="SourceAlpha" type="matrix" values="0 0 0 0 0 0 0 0 0 0 0 0 0 0 0 0 0 0 127 0" result="hardAlpha"/>
<feOffset dy="4"/>
<feGaussianBlur stdDeviation="2"/>
<feComposite in2="hardAlpha" operator="out"/>
<feColorMatrix type="matrix" values="0 0 0 0 0 0 0 0 0 0 0 0 0 0 0 0 0 0 0.25 0"/>
<feBlend mode="normal" in2="BackgroundImageFix" result="effect1_dropShadow_2370_2000"/>
<feBlend mode="normal" in="SourceGraphic" in2="effect1_dropShadow_2370_2000" result="shape"/>
</filter>
</defs>
</svg>
