<svg width="15" height="14" viewBox="0 0 15 14" fill="none" xmlns="http://www.w3.org/2000/svg">
<path d="M2.31042 11.5384L2.53742 11.0929H2.53742L2.31042 11.5384ZM1.26158 10.4896L0.816081 10.7166H0.816081L1.26158 10.4896ZM10.4896 1.26158L10.7166 0.816081V0.816081L10.4896 1.26158ZM11.5384 2.31042L11.0929 2.53742V2.53742L11.5384 2.31042ZM2.31042 1.26158L2.53742 1.70709L2.31042 1.26158ZM1.26158 2.31042L1.70709 2.53742V2.53742L1.26158 2.31042ZM11.3 5.8C11.3 6.07614 11.5239 6.3 11.8 6.3C12.0761 6.3 12.3 6.07614 12.3 5.8H11.3ZM5.8 12.3C6.07614 12.3 6.3 12.0761 6.3 11.8C6.3 11.5239 6.07614 11.3 5.8 11.3V12.3ZM4 3.5C3.72386 3.5 3.5 3.72386 3.5 4C3.5 4.27614 3.72386 4.5 4 4.5V3.5ZM8.8 4.5C9.07614 4.5 9.3 4.27614 9.3 4C9.3 3.72386 9.07614 3.5 8.8 3.5V4.5ZM4 5.9C3.72386 5.9 3.5 6.12386 3.5 6.4C3.5 6.67614 3.72386 6.9 4 6.9V5.9ZM8.8 6.9C9.07614 6.9 9.3 6.67614 9.3 6.4C9.3 6.12386 9.07614 5.9 8.8 5.9V6.9ZM4 8.3C3.72386 8.3 3.5 8.52386 3.5 8.8C3.5 9.07614 3.72386 9.3 4 9.3V8.3ZM6.4 9.3C6.67614 9.3 6.9 9.07614 6.9 8.8C6.9 8.52386 6.67614 8.3 6.4 8.3V9.3ZM8.75193 12.098L9.22628 12.2561V12.2561L8.75193 12.098ZM9.02961 11.2649L8.55527 11.1068L8.55527 11.1068L9.02961 11.2649ZM9.31613 10.8013L9.66968 11.1549L9.66968 11.1549L9.31613 10.8013ZM12.0832 8.03423L11.7297 7.68067L11.7297 7.68067L12.0832 8.03423ZM13.5658 9.51677L13.9193 9.87032V9.87032L13.5658 9.51677ZM10.7987 12.2839L10.4451 11.9303V11.9303L10.7987 12.2839ZM10.3351 12.5704L10.4932 13.0447H10.4932L10.3351 12.5704ZM9.50205 12.8481L9.66016 13.3224L9.66016 13.3224L9.50205 12.8481ZM10.6467 12.4257L10.9478 12.8249L10.6467 12.4257ZM10.5299 12.4979L10.3076 12.0501H10.3076L10.5299 12.4979ZM13.5658 8.03423L13.2122 8.38778L13.5658 8.03423ZM13.9229 8.44636L14.3709 8.22435V8.22435L13.9229 8.44636ZM13.9229 9.10463L14.3709 9.32664L13.9229 9.10463ZM12.4954 7.67708L12.7174 8.12509L12.4954 7.67708ZM13.1536 7.67708L12.9316 8.12509V8.12509L13.1536 7.67708ZM9.1021 11.0701L9.54994 11.2924V11.2924L9.1021 11.0701ZM9.17427 10.9533L8.77512 10.6522V10.6522L9.17427 10.9533ZM8.6138 12.7616L9.08475 12.5936L8.6138 12.7616ZM8.83841 12.9862L8.67048 13.4572L8.83841 12.9862ZM4.84 1.5H7.96V0.5H4.84V1.5ZM1.5 7.96V4.84H0.5V7.96H1.5ZM4.84 11.3C4.15969 11.3 3.67952 11.2996 3.3044 11.269C2.93512 11.2388 2.71188 11.1818 2.53742 11.0929L2.08343 11.9839C2.42236 12.1566 2.79184 12.2304 3.22297 12.2656C3.64826 12.3004 4.17619 12.3 4.84 12.3V11.3ZM0.5 7.96C0.5 8.62381 0.499611 9.15174 0.534359 9.57703C0.569583 10.0082 0.643389 10.3776 0.816081 10.7166L1.70709 10.2626C1.6182 10.0881 1.56121 9.86488 1.53104 9.4956C1.50039 9.12048 1.5 8.64031 1.5 7.96H0.5ZM2.53742 11.0929C2.17991 10.9108 1.88925 10.6201 1.70709 10.2626L0.816081 10.7166C1.09411 11.2622 1.53776 11.7059 2.08343 11.9839L2.53742 11.0929ZM7.96 1.5C8.64031 1.5 9.12048 1.50039 9.4956 1.53104C9.86488 1.56121 10.0881 1.6182 10.2626 1.70709L10.7166 0.816081C10.3776 0.643389 10.0082 0.569583 9.57703 0.534359C9.15174 0.499611 8.62381 0.5 7.96 0.5V1.5ZM12.3 4.84C12.3 4.17619 12.3004 3.64826 12.2656 3.22297C12.2304 2.79184 12.1566 2.42236 11.9839 2.08343L11.0929 2.53742C11.1818 2.71188 11.2388 2.93512 11.269 3.3044C11.2996 3.67952 11.3 4.15969 11.3 4.84H12.3ZM10.2626 1.70709C10.6201 1.88925 10.9108 2.17991 11.0929 2.53742L11.9839 2.08343C11.7059 1.53776 11.2622 1.09411 10.7166 0.816081L10.2626 1.70709ZM4.84 0.5C4.17619 0.5 3.64826 0.499611 3.22297 0.534359C2.79184 0.569583 2.42236 0.643389 2.08343 0.816081L2.53742 1.70709C2.71188 1.6182 2.93512 1.56121 3.3044 1.53104C3.67952 1.50039 4.15969 1.5 4.84 1.5V0.5ZM1.5 4.84C1.5 4.15969 1.50039 3.67952 1.53104 3.3044C1.56121 2.93512 1.6182 2.71188 1.70709 2.53742L0.816081 2.08343C0.643389 2.42236 0.569583 2.79184 0.534359 3.22297C0.499611 3.64826 0.5 4.17619 0.5 4.84H1.5ZM2.08343 0.816081C1.53776 1.09411 1.09411 1.53776 0.816081 2.08343L1.70709 2.53742C1.88925 2.17991 2.17991 1.88925 2.53742 1.70709L2.08343 0.816081ZM11.3 4.84V5.8H12.3V4.84H11.3ZM4.84 12.3H5.8V11.3H4.84V12.3ZM4 4.5H8.8V3.5H4V4.5ZM4 6.9H8.8V5.9H4V6.9ZM4 9.3H6.4V8.3H4V9.3ZM9.22628 12.2561L9.50395 11.423L8.55527 11.1068L8.27759 11.9398L9.22628 12.2561ZM9.66968 11.1549L12.4368 8.38778L11.7297 7.68067L8.96257 10.4478L9.66968 11.1549ZM13.2122 9.16321L10.4451 11.9303L11.1522 12.6374L13.9193 9.87032L13.2122 9.16321ZM10.177 12.096L9.34393 12.3737L9.66016 13.3224L10.4932 13.0447L10.177 12.096ZM10.4451 11.9303C10.3618 12.0136 10.3526 12.0212 10.3456 12.0266L10.9478 12.8249C11.0232 12.768 11.0878 12.7018 11.1522 12.6374L10.4451 11.9303ZM10.4932 13.0447C10.5796 13.0159 10.6677 12.9877 10.7523 12.9457L10.3076 12.0501C10.2996 12.054 10.2887 12.0588 10.177 12.096L10.4932 13.0447ZM10.3456 12.0266C10.3337 12.0356 10.3209 12.0434 10.3076 12.0501L10.7523 12.9457C10.821 12.9116 10.8865 12.8711 10.9478 12.8249L10.3456 12.0266ZM13.2122 8.38778C13.3173 8.49282 13.3812 8.55707 13.4269 8.60821C13.4702 8.65673 13.4762 8.67099 13.4749 8.66837L14.3709 8.22435C14.2713 8.0233 14.0929 7.85422 13.9193 7.68067L13.2122 8.38778ZM13.9193 9.87032C14.0929 9.69678 14.2713 9.5277 14.3709 9.32664L13.4749 8.88262C13.4762 8.88001 13.4702 8.89426 13.4269 8.94279C13.3812 8.99393 13.3173 9.05818 13.2122 9.16321L13.9193 9.87032ZM13.4749 8.66837C13.5084 8.73587 13.5084 8.81512 13.4749 8.88262L14.3709 9.32664C14.543 8.97936 14.543 8.57163 14.3709 8.22435L13.4749 8.66837ZM12.4368 8.38778C12.5418 8.28274 12.6061 8.21876 12.6572 8.1731C12.7057 8.12977 12.72 8.12379 12.7174 8.12509L12.2734 7.22907C12.0723 7.3287 11.9032 7.50713 11.7297 7.68067L12.4368 8.38778ZM13.9193 7.68067C13.7458 7.50713 13.5767 7.3287 13.3756 7.22907L12.9316 8.12509C12.929 8.12379 12.9433 8.12977 12.9918 8.1731C13.0429 8.21876 13.1072 8.28274 13.2122 8.38778L13.9193 7.68067ZM12.7174 8.12509C12.7849 8.09164 12.8641 8.09164 12.9316 8.12509L13.3756 7.22907C13.0284 7.05698 12.6206 7.05698 12.2734 7.22907L12.7174 8.12509ZM9.50395 11.423C9.54119 11.3113 9.54601 11.3004 9.54994 11.2924L8.65427 10.8477C8.61227 10.9323 8.58407 11.0204 8.55527 11.1068L9.50395 11.423ZM8.96258 10.4478C8.89818 10.5122 8.83199 10.5768 8.77512 10.6522L9.57343 11.2544C9.57876 11.2474 9.5864 11.2382 9.66968 11.1549L8.96258 10.4478ZM9.54994 11.2924C9.55658 11.2791 9.56445 11.2663 9.57343 11.2544L8.77512 10.6522C8.72887 10.7135 8.68841 10.779 8.65427 10.8477L9.54994 11.2924ZM8.27759 11.9398C8.22039 12.1115 8.16603 12.2729 8.13475 12.406C8.10522 12.5317 8.07066 12.7271 8.14285 12.9295L9.08475 12.5936C9.114 12.6757 9.08815 12.7203 9.10824 12.6348C9.12659 12.5567 9.16277 12.4466 9.22628 12.2561L8.27759 11.9398ZM9.34394 12.3737C9.15341 12.4372 9.04328 12.4734 8.9652 12.4918C8.8797 12.5119 8.92432 12.486 9.00635 12.5152L8.67048 13.4572C8.87292 13.5293 9.06828 13.4948 9.19396 13.4652C9.32706 13.434 9.48854 13.3796 9.66016 13.3224L9.34394 12.3737ZM8.14285 12.9295C8.23062 13.1757 8.42432 13.3694 8.67048 13.4572L9.00635 12.5152C9.04293 12.5283 9.07171 12.5571 9.08475 12.5936L8.14285 12.9295Z" fill="#3248F6"/>
</svg>
