<svg xmlns="http://www.w3.org/2000/svg" width="14" height="14" viewBox="0 0 14 14" fill="none">
    <path d="M4.66634 4.66634H9.33301M4.66634 4.66634V9.33301M4.66634 4.66634H1.74967C1.10534 4.66634 0.583008 4.14401 0.583008 3.49967C0.583008 1.88884 1.88884 0.583008 3.49967 0.583008C4.14401 0.583008 4.66634 1.10534 4.66634 1.74967V4.66634ZM9.33301 4.66634V9.33301M9.33301 4.66634H12.2497C12.894 4.66634 13.4163 4.14401 13.4163 3.49967C13.4163 1.88884 12.1105 0.583008 10.4997 0.583008C9.85534 0.583008 9.33301 1.10534 9.33301 1.74967V4.66634ZM9.33301 9.33301H4.66634M9.33301 9.33301H12.2497C12.894 9.33301 13.4163 9.85534 13.4163 10.4997C13.4163 12.1105 12.1105 13.4163 10.4997 13.4163C9.85534 13.4163 9.33301 12.894 9.33301 12.2497V9.33301ZM4.66634 9.33301H1.74967C1.10534 9.33301 0.583008 9.85534 0.583008 10.4997C0.583008 12.1105 1.88884 13.4163 3.49967 13.4163C4.14401 13.4163 4.66634 12.894 4.66634 12.2497V9.33301Z" stroke="#3248F6"/>
</svg>