<svg width="14" height="14" viewBox="0 0 14 14" fill="none" xmlns="http://www.w3.org/2000/svg">
    <path d="M1 7L6.8323 9.93782C6.93787 9.991 7.06213 9.991 7.16771 9.93782L13 7M1 10.0223L6.8323 12.9601C6.93787 13.0133 7.06213 13.0133 7.16771 12.9601L13 10.0223M6.8323 1.03988L1.67082 3.6398C1.39443 3.77902 1.39443 4.17638 1.67082 4.31561L6.8323 6.91552C6.93787 6.9687 7.06213 6.9687 7.16771 6.91552L12.3292 4.31561C12.6056 4.17638 12.6056 3.77902 12.3292 3.6398L7.16771 1.03988C7.06213 0.986705 6.93787 0.986705 6.8323 1.03988Z" stroke="#3248F6" stroke-linecap="round" />
</svg>